# This file uses centimeters as units for non-parametric coordinates.

mtllib Gimmick_Stone_Blue.mtl
g default
v -5.000000 -5.000000 9.442285
v 5.000000 -5.000000 9.442285
v -5.000000 5.000000 9.442285
v 5.000000 5.000000 9.442285
v -5.000000 5.000000 6.964894
v 5.000000 5.000000 6.964894
v -5.000000 -5.000000 6.964894
v 5.000000 -5.000000 6.964894
vt 0.454703 0.793660
vt 0.495458 0.793660
vt 0.495458 0.958165
vt 0.454703 0.958165
vt 0.629177 0.605699
vt 0.669931 0.605699
vt 0.669931 0.770203
vt 0.629177 0.770203
vt 0.685997 0.957345
vt 0.685997 0.792840
vt 0.726751 0.792840
vt 0.726751 0.957345
vt 0.628361 0.958164
vt 0.628361 0.793660
vt 0.669115 0.793660
vt 0.669115 0.958164
vt 0.198409 0.802161
vt 0.362913 0.802161
vt 0.362913 0.966665
vt 0.198409 0.966665
vn 0.000000 0.000000 1.000000
vn 0.000000 0.000000 1.000000
vn 0.000000 0.000000 1.000000
vn 0.000000 0.000000 1.000000
vn 0.000000 1.000000 0.000000
vn 0.000000 1.000000 0.000000
vn 0.000000 1.000000 0.000000
vn 0.000000 1.000000 0.000000
vn 0.000000 -1.000000 0.000000
vn 0.000000 -1.000000 0.000000
vn 0.000000 -1.000000 0.000000
vn 0.000000 -1.000000 0.000000
vn 1.000000 0.000000 0.000000
vn 1.000000 0.000000 0.000000
vn 1.000000 0.000000 0.000000
vn 1.000000 0.000000 0.000000
vn -1.000000 0.000000 0.000000
vn -1.000000 0.000000 0.000000
vn -1.000000 0.000000 0.000000
vn -1.000000 0.000000 0.000000
s off
g Gimmick_Stone_Mesh05_low Gimmick_Stone_low
usemtl lambert4SG
f 1/17/1 2/18/2 4/19/3 3/20/4
f 3/9/5 4/10/6 6/11/7 5/12/8
f 7/13/9 8/14/10 2/15/11 1/16/12
f 2/1/13 8/2/14 6/3/15 4/4/16
f 7/5/17 1/6/18 3/7/19 5/8/20
