# This file uses centimeters as units for non-parametric coordinates.

mtllib Gimmick_Stone_Base01.mtl
g default
v -30.000000 15.000000 -1.000000
v 30.000000 15.000000 -1.000000
v -30.000000 -15.000000 -1.000000
v 30.000000 -15.000000 -1.000000
v -28.353176 -13.813124 7.500000
v -30.000000 -15.000000 6.750075
v 28.353176 -13.813124 7.500000
v 30.000000 -15.000000 6.750075
v -28.353176 13.813124 7.500000
v -30.000000 15.000000 6.750075
v 28.353176 13.813124 7.500000
v 30.000000 15.000000 6.750075
v 26.953176 -12.413124 7.500000
v -26.953176 -12.413124 7.500000
v 26.953176 12.413124 7.500000
v -26.953176 12.413124 7.500000
v 26.588476 -12.245164 7.050630
v -26.588476 -12.245164 7.050630
v 26.588476 12.245164 7.050630
v -26.588476 12.245164 7.050630
vt 0.389874 0.029047
vt 0.460192 0.029047
vt 0.460192 0.301245
vt 0.389874 0.301245
vt 0.310056 0.029047
vt 0.380374 0.029047
vt 0.380374 0.301245
vt 0.310056 0.301245
vt 0.859202 0.552226
vt 0.966422 0.007817
vt 0.929520 0.007831
vt 0.929520 0.552226
vt 0.957112 0.732244
vt 0.957112 0.028262
vt 0.779384 0.552226
vt 0.779384 0.007831
vt 0.849703 0.007831
vt 0.939020 0.752684
vt 0.948330 0.732240
vt 0.948330 0.028257
vt 0.987975 0.513185
vt 0.987975 0.007824
vt 0.992188 0.011243
vt 0.992188 0.509766
vt 0.979417 0.007819
vt 0.979417 0.513181
vt 0.975204 0.509762
vt 0.975204 0.011238
vt 0.007812 0.552226
vt 0.007812 0.007831
vt 0.280010 0.007831
vt 0.280010 0.552226
vt 0.921981 0.927982
vt 0.288771 0.522342
vt 0.539431 0.522342
vt 0.921981 0.642654
vt 0.301474 0.509640
vt 0.514301 0.029046
vt 0.288771 0.007831
vt 0.975984 0.854412
vt 0.548445 0.490319
vt 0.510132 0.030965
vt 0.539431 0.007831
vt 0.526729 0.020533
vt 0.980153 0.852492
vt 0.980153 0.572573
vt 0.881840 0.927982
vt 0.881840 0.642653
vt 0.514301 0.312800
vt 0.526729 0.509640
vt 0.906318 0.916694
vt 0.906318 0.653943
vt 0.770652 0.007831
vt 0.548445 0.007831
vt 0.975984 0.570653
vt 0.301474 0.020533
vt 0.897503 0.653942
vt 0.897503 0.916693
vt 0.859202 0.007831
vt 0.966422 0.752689
vt 0.510132 0.310880
vt 0.770652 0.490319
vt 0.849703 0.552226
vt 0.939020 0.007812
vn 0.000000 0.000000 -1.000000
vn 0.000000 0.000000 -1.000000
vn 0.000000 0.000000 -1.000000
vn 0.000000 0.000000 -1.000000
vn 0.000000 -0.534156 0.845386
vn 0.000000 -0.534156 0.845386
vn 0.000000 -0.534156 0.845386
vn 0.000000 -0.534156 0.845386
vn -0.414430 0.000000 0.910081
vn -0.235624 0.000000 0.971844
vn -0.235624 0.000000 0.971844
vn -0.414430 0.000000 0.910081
vn 0.235624 0.000000 0.971844
vn 0.414430 0.000000 0.910081
vn 0.414430 0.000000 0.910081
vn 0.235624 0.000000 0.971844
vn 0.000000 0.534156 0.845386
vn 0.000000 0.534156 0.845386
vn 0.000000 0.534156 0.845386
vn 0.000000 0.534156 0.845386
vn 0.000000 0.000000 1.000000
vn 0.000000 0.000000 1.000000
vn 0.000000 0.000000 1.000000
vn 0.000000 0.000000 1.000000
vn 0.000000 1.000000 0.000000
vn 0.000000 1.000000 0.000000
vn 0.000000 1.000000 0.000000
vn 0.000000 1.000000 0.000000
vn 0.000000 -1.000000 0.000000
vn 0.000000 -1.000000 0.000000
vn 0.000000 -1.000000 0.000000
vn 0.000000 -1.000000 0.000000
vn 1.000000 0.000000 0.000000
vn 1.000000 0.000000 0.000000
vn 1.000000 0.000000 0.000000
vn 1.000000 0.000000 0.000000
vn -1.000000 0.000000 0.000000
vn -1.000000 0.000000 0.000000
vn -1.000000 0.000000 0.000000
vn -1.000000 0.000000 0.000000
vn 0.000000 0.000000 1.000000
vn -0.000000 0.000000 1.000000
vn 0.000000 0.000000 1.000000
vn -0.000000 0.000000 1.000000
vn 0.000000 0.936709 0.350110
vn 0.000000 0.936709 0.350110
vn 0.000000 0.936709 0.350110
vn 0.000000 0.936709 0.350110
vn -0.776464 0.000000 0.630162
vn -0.776464 0.000000 0.630162
vn -0.776464 0.000000 0.630162
vn -0.776464 0.000000 0.630162
vn 0.000000 -0.936709 0.350110
vn 0.000000 -0.936709 0.350110
vn 0.000000 -0.936709 0.350110
vn 0.000000 -0.936709 0.350110
vn 0.776464 0.000000 0.630162
vn 0.776464 0.000000 0.630162
vn 0.776464 0.000000 0.630162
vn 0.776464 0.000000 0.630162
s off
g Gimmick_Stone_Mesh01_low Gimmick_Stone_low
usemtl lambert4SG
f 1/29/1 2/30/2 4/31/3 3/32/4
f 5/19/5 6/18/6 8/64/7 7/20/8
s 1
f 6/33/9 5/51/10 9/52/11 10/36/12
f 7/58/13 8/47/14 12/48/15 11/57/16
s off
f 10/60/17 9/13/18 11/14/19 12/10/20
f 18/41/21 17/54/22 19/53/23 20/62/24
f 10/9/25 12/59/26 2/11/27 1/12/28
f 3/15/29 4/16/30 8/17/31 6/63/32
f 8/1/33 4/2/34 2/3/35 12/4/36
f 3/5/37 6/6/38 10/7/39 1/8/40
s 1
f 5/34/10 7/39/13 13/56/41 14/37/42
f 7/39/13 11/43/16 15/44/43 13/56/41
f 11/43/16 9/35/11 16/50/44 15/44/43
f 9/35/11 5/34/10 14/37/42 16/50/44
s off
f 14/21/45 13/22/46 17/23/47 18/24/48
f 13/40/49 15/55/50 19/46/51 17/45/52
f 15/25/53 16/26/54 20/27/55 19/28/56
f 16/38/57 14/49/58 18/61/59 20/42/60
