# This file uses centimeters as units for non-parametric coordinates.

mtllib Gimmick_Hangar01.mtl
g default
v 10.000000 0.000000 23.000000
v 10.000000 0.000000 -23.000000
v -10.000000 0.000000 23.000000
v -10.000000 0.000000 -23.000000
vt 0.000000 0.332609
vt 1.000000 0.332609
vt 0.000000 0.767391
vt 1.000000 0.767391
vn 0.000000 1.000000 0.000000
vn 0.000000 1.000000 0.000000
vn 0.000000 1.000000 0.000000
vn 0.000000 1.000000 0.000000
s off
g Gimmick_Hangar01
usemtl T_Gimmick_Hangar01SG
f 1/1/1 2/2/2 4/4/3 3/3/4
