# Blender 4.4.3
# www.blender.org
mtllib Gimmick_FenceDoor01_blender.mtl
o Gimmick_FenceDoor01
v -4.750000 0.000000 4.250000
v 3.750000 0.000000 4.250000
v -4.750000 278.000000 4.249979
v 3.750000 278.000000 4.249979
v -4.750000 278.000000 -4.250021
v 3.750000 278.000000 -4.250021
v -4.750000 -0.000000 -4.250000
v 3.750000 -0.000000 -4.250000
v -143.750000 0.000000 4.250000
v -135.250000 0.000000 4.250000
v -143.750000 278.000000 4.249979
v -135.250000 278.000000 4.249979
v -143.750000 278.000000 -4.250021
v -135.250000 278.000000 -4.250021
v -143.750000 -0.000000 -4.250000
v -135.250000 -0.000000 -4.250000
v -4.750000 268.558014 4.041728
v -4.750000 276.641510 4.041727
v -135.250000 268.558014 4.041728
v -135.250000 276.641510 4.041727
v -135.250000 268.558014 -4.041769
v -135.250000 276.641510 -4.041769
v -4.750000 268.558014 -4.041769
v -4.750000 276.641510 -4.041769
v -4.750000 1.958263 4.041748
v -4.750000 10.041737 4.041747
v -135.250000 1.958263 4.041748
v -135.250000 10.041737 4.041747
v -135.250000 1.958263 -4.041748
v -135.250000 10.041737 -4.041749
v -4.750000 1.958263 -4.041748
v -4.750000 10.041737 -4.041749
v -4.750000 128.111298 3.514272
v -4.750000 145.888702 3.514271
v -135.250000 128.111298 3.514272
v -135.250000 145.888702 3.514271
v -135.250000 128.111298 -3.514292
v -135.250000 145.888702 -3.514293
v -4.750000 128.111298 -3.514292
v -4.750000 145.888702 -3.514293
v -4.750000 9.685417 3.514281
v -4.750000 36.000000 3.514279
v -135.250000 9.685425 3.514281
v -135.250000 36.000000 3.514279
v -135.250000 9.685425 -3.514283
v -135.250000 36.000000 -3.514285
v -4.750000 9.685417 -3.514283
v -4.750000 36.000000 -3.514285
v -4.750000 268.542175 3.514262
v -4.750000 242.229767 3.514264
v -135.250000 268.542175 3.514262
v -135.250000 242.229752 3.514264
v -135.250000 268.542175 -3.514302
v -135.250000 242.229752 -3.514300
v -4.750000 268.542175 -3.514302
v -4.750000 242.229767 -3.514300
v -38.757561 36.000000 2.757565
v -33.242424 36.000000 2.757565
v -38.757561 242.229752 2.757550
v -33.242424 242.229752 2.757550
v -38.757561 242.229752 -2.757525
v -33.242424 242.229752 -2.757525
v -38.757561 36.000000 -2.757510
v -33.242424 36.000000 -2.757510
v -106.757568 36.000000 2.757565
v -101.242432 36.000000 2.757565
v -106.757568 242.229752 2.757550
v -101.242432 242.229752 2.757550
v -106.757568 242.229752 -2.757525
v -101.242432 242.229752 -2.757525
v -106.757568 36.000000 -2.757510
v -101.242432 36.000000 -2.757510
v -72.757568 36.000000 2.757565
v -67.242432 36.000000 2.757565
v -72.757568 242.229752 2.757550
v -67.242432 242.229752 2.757550
v -72.757568 242.229752 -2.757525
v -67.242432 242.229752 -2.757525
v -72.757568 36.000000 -2.757510
v -67.242432 36.000000 -2.757510
vn -0.7071 -0.0000 0.7071
vn 0.7071 -0.0000 0.7071
vn -0.7071 -0.0000 -0.7071
vn 0.7071 -0.0000 -0.7071
vn -0.0000 -1.0000 -0.0000
vn -0.0000 1.0000 -0.0000
vn -0.0000 -0.7071 0.7071
vn -0.0000 0.7071 0.7071
vn -0.0000 -0.7071 -0.7071
vn -0.0000 0.7071 -0.7071
vn -0.0000 -0.0000 1.0000
vn -0.0000 -0.0000 -1.0000
vt 0.652350 0.493024
vt 0.663943 0.493024
vt 0.663943 0.872177
vt 0.652350 0.872177
vt 0.672001 0.493024
vt 0.683593 0.493024
vt 0.683593 0.872177
vt 0.672001 0.872177
vt 0.455845 0.493024
vt 0.467438 0.493024
vt 0.467438 0.872177
vt 0.455845 0.872177
vt 0.436194 0.493024
vt 0.447787 0.493024
vt 0.447787 0.872177
vt 0.436194 0.872177
vt 0.990142 0.142882
vt 0.990142 0.154475
vt 0.978549 0.154475
vt 0.978549 0.142882
vt 0.978549 0.103976
vt 0.990142 0.103976
vt 0.990142 0.115568
vt 0.978549 0.115568
vt 0.746673 0.493024
vt 0.758265 0.493024
vt 0.758265 0.872177
vt 0.746673 0.872177
vt 0.581608 0.493024
vt 0.593201 0.493024
vt 0.593201 0.872177
vt 0.581608 0.872177
vt 0.935318 0.493024
vt 0.946911 0.493024
vt 0.946911 0.872177
vt 0.935318 0.872177
vt 0.510866 0.493024
vt 0.522459 0.493024
vt 0.522459 0.872177
vt 0.510866 0.872177
vt 0.990142 0.173928
vt 0.978549 0.173928
vt 0.978549 0.162335
vt 0.990142 0.162335
vt 0.990142 0.123429
vt 0.990142 0.135022
vt 0.978549 0.135022
vt 0.978549 0.123429
vt 0.062834 0.734433
vt 0.073859 0.734433
vt 0.073859 0.912417
vt 0.062834 0.912417
vt 0.203552 0.912417
vt 0.192528 0.912417
vt 0.192528 0.734433
vt 0.203552 0.734433
vt 0.102135 0.734433
vt 0.113160 0.734433
vt 0.113160 0.912417
vt 0.102135 0.912417
vt 0.172877 0.734433
vt 0.183902 0.734433
vt 0.183902 0.912417
vt 0.172877 0.912417
vt 0.121786 0.734433
vt 0.132810 0.734433
vt 0.132810 0.912417
vt 0.121786 0.912417
vt 0.152461 0.912417
vt 0.141436 0.912417
vt 0.141436 0.734433
vt 0.152461 0.734433
vt 0.082485 0.734433
vt 0.093509 0.734433
vt 0.093509 0.912417
vt 0.082485 0.912417
vt 0.290780 0.678868
vt 0.301805 0.678868
vt 0.301805 0.856851
vt 0.290780 0.856851
vt 0.840995 0.493024
vt 0.865241 0.493024
vt 0.865241 0.671007
vt 0.840995 0.671007
vt 0.865241 0.856851
vt 0.840995 0.856851
vt 0.840995 0.678867
vt 0.865241 0.678867
vt 0.793834 0.782152
vt 0.803420 0.782152
vt 0.803420 0.960136
vt 0.793834 0.960136
vt 0.907807 0.782152
vt 0.917393 0.782152
vt 0.917393 0.960136
vt 0.907807 0.960136
vt 0.227898 0.493024
vt 0.263788 0.493024
vt 0.263788 0.671007
vt 0.227898 0.671007
vt 0.310949 0.671007
vt 0.275060 0.671007
vt 0.275060 0.493024
vt 0.310949 0.493024
vt 0.027463 0.734433
vt 0.037049 0.734433
vt 0.037049 0.912417
vt 0.027463 0.912417
vt 0.358108 0.493024
vt 0.358108 0.671007
vt 0.322221 0.671007
vt 0.322221 0.493024
vt 0.369382 0.671007
vt 0.369382 0.493024
vt 0.405269 0.493024
vt 0.405269 0.671007
vt 0.017398 0.734433
vt 0.017398 0.912417
vt 0.007812 0.912417
vt 0.007812 0.734433
vt 0.793834 0.493024
vt 0.801356 0.493024
vt 0.801356 0.774292
vt 0.793834 0.774292
vt 0.907807 0.493024
vt 0.915329 0.493024
vt 0.915329 0.774292
vt 0.907807 0.774292
vt 0.385103 0.678867
vt 0.392625 0.678867
vt 0.392625 0.960136
vt 0.385103 0.960136
vt 0.275060 0.678868
vt 0.282582 0.678868
vt 0.282582 0.960136
vt 0.275060 0.960136
vt 0.986071 0.212552
vt 0.986071 0.220074
vt 0.978549 0.220074
vt 0.978549 0.212552
vt 0.978549 0.181788
vt 0.986071 0.181788
vt 0.986071 0.189310
vt 0.978549 0.189310
vt 0.322221 0.678867
vt 0.329743 0.678867
vt 0.329743 0.960136
vt 0.322221 0.960136
vt 0.337941 0.678867
vt 0.345463 0.678867
vt 0.345463 0.960136
vt 0.337941 0.960136
vt 0.400823 0.678867
vt 0.408345 0.678867
vt 0.408345 0.960136
vt 0.400823 0.960136
vt 0.227898 0.678868
vt 0.235420 0.678868
vt 0.235420 0.960136
vt 0.227898 0.960136
vt 0.986071 0.197170
vt 0.986071 0.204692
vt 0.978549 0.204692
vt 0.978549 0.197170
vt 0.978549 0.227934
vt 0.986071 0.227934
vt 0.986071 0.235456
vt 0.978549 0.235456
vt 0.353662 0.678867
vt 0.361184 0.678867
vt 0.361184 0.960136
vt 0.353662 0.960136
vt 0.369382 0.678867
vt 0.376904 0.678867
vt 0.376904 0.960136
vt 0.369382 0.960136
vt 0.243619 0.678868
vt 0.251141 0.678868
vt 0.251141 0.960136
vt 0.243619 0.960136
vt 0.259339 0.678868
vt 0.266861 0.678868
vt 0.266861 0.960136
vt 0.259339 0.960136
vt 0.986071 0.243316
vt 0.986071 0.250838
vt 0.978549 0.250838
vt 0.978549 0.243316
vt 0.978549 0.258698
vt 0.986071 0.258698
vt 0.986071 0.266220
vt 0.978549 0.266220
s 1
usemtl T_EV_Fence01SG
f 1/1/1 2/2/2 4/3/2 3/4/1
f 5/5/3 6/6/4 8/7/4 7/8/3
f 2/9/2 8/10/4 6/11/4 4/12/2
f 7/13/3 1/14/1 3/15/1 5/16/3
f 2/17/5 1/18/5 7/19/5 8/20/5
f 4/21/6 6/22/6 5/23/6 3/24/6
f 9/25/1 10/26/2 12/27/2 11/28/1
f 13/29/3 14/30/4 16/31/4 15/32/3
f 10/33/2 16/34/4 14/35/4 12/36/2
f 15/37/3 9/38/1 11/39/1 13/40/3
f 10/41/5 9/42/5 15/43/5 16/44/5
f 12/45/6 14/46/6 13/47/6 11/48/6
f 17/49/7 18/50/8 20/51/8 19/52/7
f 21/53/9 22/54/10 24/55/10 23/56/9
f 18/57/8 24/58/10 22/59/10 20/60/8
f 23/61/9 17/62/7 19/63/7 21/64/9
f 25/65/7 26/66/8 28/67/8 27/68/7
f 29/69/9 30/70/10 32/71/10 31/72/9
f 26/73/8 32/74/10 30/75/10 28/76/8
f 31/77/9 25/78/7 27/79/7 29/80/9
f 33/81/11 34/82/11 36/83/11 35/84/11
f 37/85/12 38/86/12 40/87/12 39/88/12
f 34/89/6 40/90/6 38/91/6 36/92/6
f 39/93/5 33/94/5 35/95/5 37/96/5
f 41/97/11 42/98/11 44/99/11 43/100/11
f 45/101/12 46/102/12 48/103/12 47/104/12
f 42/105/6 48/106/6 46/107/6 44/108/6
f 49/109/11 51/110/11 52/111/11 50/112/11
f 53/113/12 55/114/12 56/115/12 54/116/12
f 50/117/5 52/118/5 54/119/5 56/120/5
f 57/121/1 58/122/2 60/123/2 59/124/1
f 61/125/3 62/126/4 64/127/4 63/128/3
f 58/129/2 64/130/4 62/131/4 60/132/2
f 63/133/3 57/134/1 59/135/1 61/136/3
f 58/137/5 57/138/5 63/139/5 64/140/5
f 60/141/6 62/142/6 61/143/6 59/144/6
f 65/145/1 66/146/2 68/147/2 67/148/1
f 69/149/3 70/150/4 72/151/4 71/152/3
f 66/153/2 72/154/4 70/155/4 68/156/2
f 71/157/3 65/158/1 67/159/1 69/160/3
f 66/161/5 65/162/5 71/163/5 72/164/5
f 68/165/6 70/166/6 69/167/6 67/168/6
f 73/169/1 74/170/2 76/171/2 75/172/1
f 77/173/3 78/174/4 80/175/4 79/176/3
f 74/177/2 80/178/4 78/179/4 76/180/2
f 79/181/3 73/182/1 75/183/1 77/184/3
f 74/185/5 73/186/5 79/187/5 80/188/5
f 76/189/6 78/190/6 77/191/6 75/192/6
