# This file uses centimeters as units for non-parametric coordinates.

mtllib Gimmick_Cabinet02_drawer_Chain.mtl
g default
v 21.737629 11.228952 29.484734
v -21.737629 11.228952 29.484734
v 21.737629 11.228952 -3.377445
v -21.737629 11.228952 -3.377445
v 21.737629 20.099661 29.484734
v -21.737629 20.099661 29.484734
v 21.737629 20.099661 -3.377445
v -21.737629 20.099661 -3.377445
v -20.737629 20.099661 29.484722
v -20.737629 20.099661 -2.377445
v 20.737629 20.099661 29.484722
v 20.737629 20.099661 -2.377445
v -20.737629 12.542175 29.484722
v -20.737629 12.542175 -2.377445
v 20.737629 12.542175 29.484722
v 20.737629 12.542175 -2.377445
v 22.627789 10.822550 29.482634
v -22.627790 10.822550 29.482634
v 22.627789 20.786991 29.482634
v -22.627790 20.786991 29.482634
v -22.627779 20.786991 30.482634
v 22.627781 20.786991 30.482634
v -22.627779 10.822550 30.482634
v 22.627781 10.822550 30.482634
v 5.809673 10.822550 29.482634
v 5.809673 20.786991 29.482634
v 5.809671 20.786991 30.482634
v 5.809671 10.822550 30.482634
v -5.809675 10.822550 29.482634
v -5.809675 20.786991 29.482634
v -5.809671 20.786991 30.482634
v -5.809671 10.822550 30.482634
v 22.627789 16.933887 29.482634
v 22.627781 16.933887 30.482634
v 5.809671 16.933887 30.482634
v -5.809671 16.933887 30.482634
v -22.627779 16.933887 30.482634
v -22.627790 16.933887 29.482634
v -5.809675 16.933887 29.482634
v 5.809673 16.933887 29.482634
v -22.627779 18.428555 30.482634
v -5.809671 18.428555 30.482634
v 5.809671 18.428555 30.482634
v 22.627781 18.428555 30.482634
v 22.627789 18.428555 29.482634
v 5.809673 18.428555 29.482634
v -5.809675 18.428555 29.482634
v -22.627790 18.428555 29.482634
v -5.809671 18.428555 29.775826
v -5.809671 17.277596 29.775826
v 5.809671 17.277596 29.775826
v 5.809671 18.428555 29.775826
vt 0.393803 0.895630
vt 0.393803 0.640004
vt 0.462806 0.640004
vt 0.462806 0.895630
vt 0.063007 0.903069
vt 0.063007 0.647443
vt 0.132009 0.647443
vt 0.132009 0.903069
vt 0.588324 0.640004
vt 0.588324 0.887851
vt 0.529536 0.887851
vt 0.529536 0.640004
vt 0.525606 0.640004
vt 0.525606 0.887851
vt 0.466818 0.887852
vt 0.466818 0.640004
vt 0.267147 0.643698
vt 0.011521 0.643699
vt 0.011521 0.305516
vt 0.267147 0.305516
vt 0.238629 0.300887
vt 0.012373 0.300887
vt 0.012373 0.006367
vt 0.238629 0.006367
vt 0.402073 0.126837
vt 0.402073 0.382463
vt 0.394295 0.382463
vt 0.394295 0.134616
vt 0.389904 0.126837
vt 0.382125 0.134616
vt 0.440659 0.509951
vt 0.448438 0.509951
vt 0.267743 0.647443
vt 0.267743 0.985625
vt 0.198740 0.985625
vt 0.198740 0.647443
vt 0.194809 0.647443
vt 0.194809 0.970068
vt 0.136022 0.970068
vt 0.136022 0.647443
vt 0.448438 0.262104
vt 0.382125 0.457237
vt 0.440659 0.254326
vt 0.389904 0.465016
vt 0.382961 0.579226
vt 0.382961 0.642707
vt 0.349573 0.642707
vt 0.349573 0.579226
vt 0.019300 0.868652
vt 0.011521 0.868652
vt 0.011521 0.778267
vt 0.019300 0.778267
vt 0.798145 0.081035
vt 0.663883 0.081035
vt 0.663883 0.010418
vt 0.798145 0.010418
vt 0.460607 0.384919
vt 0.452828 0.384919
vt 0.452828 0.337381
vt 0.460607 0.337381
vt 0.123206 0.954352
vt 0.115428 0.954352
vt 0.115428 0.906813
vt 0.123206 0.906813
vt 0.046447 0.647443
vt 0.046447 0.778267
vt 0.038668 0.778267
vt 0.038668 0.647443
vt 0.992478 0.081035
vt 0.992478 0.010418
vt 0.019300 0.647443
vt 0.011521 0.647443
vt 0.382961 0.487343
vt 0.349573 0.487343
vt 0.046447 0.868651
vt 0.038668 0.868651
vt 0.349573 0.734590
vt 0.382961 0.734590
vt 0.019300 0.999476
vt 0.011522 0.999476
vt 0.469550 0.081035
vt 0.469550 0.010418
vt 0.046447 0.999474
vt 0.038668 0.999474
vt 0.115428 0.984324
vt 0.115428 0.965978
vt 0.123206 0.965978
vt 0.123206 0.984324
vt 0.992478 0.125558
vt 0.798145 0.125558
vt 0.798145 0.098306
vt 0.992478 0.098306
vt 0.663883 0.125558
vt 0.663883 0.098306
vt 0.469550 0.098306
vt 0.469550 0.125558
vt 0.452828 0.414891
vt 0.452828 0.396546
vt 0.460607 0.396546
vt 0.460607 0.414891
vt 0.328522 0.642707
vt 0.341407 0.642707
vt 0.341407 0.734590
vt 0.328522 0.734590
vt 0.341407 0.579226
vt 0.328522 0.579226
vt 0.341407 0.487343
vt 0.328522 0.487343
vt 0.693894 0.924607
vt 0.693894 0.933560
vt 0.603510 0.933560
vt 0.603510 0.924607
vt 0.449968 0.941733
vt 0.449968 0.930107
vt 0.455466 0.932780
vt 0.455466 0.941733
vt 0.703698 0.683188
vt 0.613315 0.683188
vt 0.613315 0.677074
vt 0.703698 0.677074
vt 0.436744 0.899372
vt 0.436744 0.910998
vt 0.431246 0.910998
vt 0.431246 0.902045
vt 0.618632 0.792671
vt 0.709015 0.792671
vt 0.709015 0.798169
vt 0.618632 0.798169
vn 0.000000 -1.000000 0.000000
vn 0.000000 -1.000000 0.000000
vn 0.000000 -1.000000 0.000000
vn 0.000000 -1.000000 0.000000
vn 1.000000 0.000000 0.000000
vn 1.000000 0.000000 0.000000
vn 1.000000 0.000000 0.000000
vn 1.000000 0.000000 0.000000
vn -1.000000 0.000000 0.000000
vn -1.000000 0.000000 0.000000
vn -1.000000 0.000000 0.000000
vn -1.000000 0.000000 0.000000
vn 0.000000 0.000000 -1.000000
vn 0.000000 0.000000 -1.000000
vn 0.000000 0.000000 -1.000000
vn 0.000000 0.000000 -1.000000
vn 0.000000 1.000000 0.000000
vn 0.000000 1.000000 0.000000
vn 0.000000 1.000000 0.000000
vn 0.000000 1.000000 0.000000
vn 0.000000 1.000000 0.000000
vn 0.000000 1.000000 0.000000
vn 0.000000 1.000000 0.000000
vn 0.000000 1.000000 0.000000
vn 0.000000 1.000000 0.000000
vn 0.000000 1.000000 0.000000
vn 0.000000 1.000000 0.000000
vn 0.000000 1.000000 0.000000
vn 1.000000 0.000000 0.000000
vn 1.000000 0.000000 0.000000
vn 1.000000 0.000000 0.000000
vn 1.000000 0.000000 0.000000
vn -1.000000 0.000000 0.000000
vn -1.000000 0.000000 0.000000
vn -1.000000 0.000000 0.000000
vn -1.000000 0.000000 0.000000
vn 0.000000 0.000000 1.000000
vn 0.000000 0.000000 1.000000
vn 0.000000 0.000000 1.000000
vn 0.000000 0.000000 1.000000
vn 0.000000 0.000000 -1.000000
vn 0.000000 0.000000 -1.000000
vn 0.000000 0.000000 -1.000000
vn 0.000000 0.000000 -1.000000
vn 0.000000 1.000000 0.000001
vn 0.000000 1.000000 0.000001
vn 0.000000 1.000000 -0.000000
vn 0.000000 1.000000 -0.000000
vn 0.000000 0.000000 1.000000
vn 0.000000 0.000000 1.000000
vn 0.000000 0.000000 1.000000
vn 0.000000 0.000000 1.000000
vn -1.000000 0.000000 0.000011
vn -1.000000 0.000000 0.000011
vn -1.000000 0.000000 0.000011
vn -1.000000 0.000000 0.000011
vn 1.000000 0.000000 0.000008
vn 1.000000 0.000000 0.000008
vn 1.000000 0.000000 0.000008
vn 1.000000 0.000000 0.000008
vn 0.000000 -1.000000 0.000000
vn 0.000000 -1.000000 0.000000
vn 0.000000 -1.000000 0.000000
vn 0.000000 -1.000000 0.000000
vn 0.000000 0.000000 1.000000
vn 0.000000 0.000000 1.000000
vn 0.000000 1.000000 -0.000000
vn 0.000000 1.000000 -0.000000
vn 0.000000 0.000000 -1.000000
vn 0.000000 0.000000 -1.000000
vn 0.000000 -1.000000 -0.000001
vn 0.000000 -1.000000 -0.000001
vn 0.000000 0.000000 -1.000000
vn 0.000000 0.000000 -1.000000
vn 0.000000 1.000000 0.000002
vn 0.000000 1.000000 0.000002
vn 0.000000 0.000000 1.000000
vn 0.000000 0.000000 1.000000
vn 0.000000 -1.000000 -0.000001
vn 0.000000 -1.000000 -0.000001
vn 1.000000 0.000000 0.000008
vn 1.000000 0.000000 0.000008
vn 1.000000 0.000000 0.000008
vn 1.000000 0.000000 0.000008
vn 0.000000 0.000000 1.000000
vn 0.000000 0.000000 1.000000
vn 0.000000 0.000000 1.000000
vn 0.000000 0.000000 1.000000
vn 0.000000 0.000000 1.000000
vn 0.000000 0.000000 1.000000
vn 0.000000 0.000000 1.000000
vn 0.000000 0.000000 1.000000
vn -1.000000 0.000000 0.000011
vn -1.000000 0.000000 0.000011
vn -1.000000 0.000000 0.000011
vn -1.000000 0.000000 0.000011
vn 0.000000 0.000000 -1.000000
vn 0.000000 0.000000 -1.000000
vn 0.000000 0.000000 -1.000000
vn 0.000000 0.000000 -1.000000
vn 0.000000 0.000000 -1.000000
vn 0.000000 0.000000 -1.000000
vn 0.000000 0.000000 -1.000000
vn 0.000000 0.000000 -1.000000
vn 0.000000 0.000000 1.000000
vn 0.000000 0.000000 1.000000
vn 0.000000 0.000000 1.000000
vn 0.000000 0.000000 1.000000
vn 1.000000 0.000000 0.000000
vn 1.000000 0.000000 0.000000
vn 1.000000 0.000000 0.000000
vn 1.000000 0.000000 0.000000
vn 0.000000 0.899307 0.437318
vn 0.000000 0.899307 0.437318
vn 0.000000 0.899307 0.437318
vn 0.000000 0.899307 0.437318
vn -1.000000 0.000000 0.000000
vn -1.000000 0.000000 0.000000
vn -1.000000 0.000000 0.000000
vn -1.000000 0.000000 0.000000
vn 0.000000 -1.000000 0.000000
vn 0.000000 -1.000000 0.000000
vn 0.000000 -1.000000 0.000000
vn 0.000000 -1.000000 0.000000
s off
g Gimmick_Cabinet02_drawer_Chain
usemtl T_Gimmick_Cabinet02_drawer01SG
f 2/17/1 4/18/2 3/19/3 1/20/4
f 1/1/5 3/2/6 7/3/7 5/4/8
f 4/5/9 2/6/10 6/7/11 8/8/12
f 3/33/13 4/34/14 8/35/15 7/36/16
f 14/21/17 13/22/18 15/23/19 16/24/20
s 1
f 8/25/21 6/26/22 9/27/23 10/28/24
f 5/31/25 7/43/26 12/41/27 11/32/28
f 7/29/26 8/44/21 10/42/24 12/30/27
s off
f 10/9/29 9/10/30 13/11/31 14/12/32
f 11/13/33 12/14/34 16/15/35 15/16/36
f 12/37/37 10/38/38 14/39/39 16/40/40
s 2
f 25/45/41 29/46/42 39/47/43 40/48/44
s 3
f 30/49/45 31/50/46 27/51/47 26/52/48
s 4
f 35/53/49 36/54/50 32/55/51 28/56/52
s 5
f 37/57/53 38/58/54 18/59/55 23/60/56
s 6
f 33/61/57 34/62/58 24/63/59 17/64/60
s 7
f 24/65/61 28/66/62 25/67/63 17/68/64
s 4
f 34/69/65 35/53/49 28/56/52 24/70/66
s 3
f 19/71/67 26/52/48 27/51/47 22/72/68
s 2
f 17/73/69 25/45/41 40/48/44 33/74/70
s 7
f 25/67/63 28/66/62 32/75/71 29/76/72
s 2
f 38/77/73 39/47/43 29/46/42 18/78/74
s 3
f 31/50/46 30/49/45 20/79/75 21/80/76
s 4
f 32/55/51 36/54/50 37/81/77 23/82/78
s 7
f 29/76/72 32/75/71 23/83/79 18/84/80
s 6
f 22/85/81 44/86/82 45/87/83 19/88/84
s 4
f 22/89/85 27/90/86 43/91/87 44/92/88
f 27/90/86 31/93/89 42/94/90 43/91/87
f 41/95/91 42/94/90 31/93/89 21/96/92
s 5
f 20/97/93 48/98/94 41/99/95 21/100/96
s 2
f 30/101/97 47/102/98 48/103/99 20/104/100
f 46/105/101 47/102/98 30/101/97 26/106/102
f 45/107/103 46/105/101 26/106/102 19/108/104
s 4
f 37/81/77 36/54/50 42/94/90 41/95/91
s off
f 49/109/105 50/110/106 51/111/107 52/112/108
s 4
f 44/92/88 43/91/87 35/53/49 34/69/65
s 6
f 45/87/83 44/86/82 34/62/58 33/61/57
s 2
f 33/74/70 40/48/44 46/105/101 45/107/103
f 40/48/44 39/47/43 47/102/98 46/105/101
f 48/103/99 47/102/98 39/47/43 38/77/73
s 5
f 41/99/95 48/98/94 38/58/54 37/57/53
s off
f 42/113/109 36/114/110 50/115/111 49/116/112
f 36/117/113 35/118/114 51/119/115 50/120/116
f 35/121/117 43/122/118 52/123/119 51/124/120
f 43/125/121 42/126/122 49/127/123 52/128/124
