# This file uses centimeters as units for non-parametric coordinates.

mtllib Gimmick_Cloth01.mtl
g default
v -15.000000 1.332815 0.000000
v 15.000000 0.927725 0.000000
v -15.000000 1.332815 8.750000
v 15.000000 0.927725 8.750000
v -15.000000 1.332815 -8.750000
v 15.000000 0.927725 -8.750000
v 0.000000 1.206938 -17.500000
v 0.000000 0.000000 -8.750000
v 0.000000 0.000000 0.000000
v 0.000000 0.000000 8.750000
v 0.000000 0.331870 17.500000
v 7.500000 1.263987 -17.500000
v 7.500000 0.454421 -8.750000
v 7.500000 0.454420 0.000000
v 7.500000 0.454420 8.750000
v 7.500000 0.677026 17.500000
v -7.500000 1.437000 -17.500000
v -7.500000 0.230062 -8.750000
v -7.500000 0.230062 0.000000
v -7.500000 0.230062 8.750000
v -7.500000 0.561932 17.500000
v -15.000000 1.371275 -13.125000
v -7.500000 0.395997 -13.125000
v 0.000000 0.165935 -13.125000
v 7.500000 0.565723 -13.125000
v 15.000000 1.006383 -13.125000
v -15.000000 1.473564 -4.375000
v -7.500000 0.837325 -4.375000
v 0.000000 0.607262 -4.375000
v 7.500000 0.861749 -4.375000
v 15.000000 1.215587 -4.375000
v -15.000000 1.557550 4.375000
v -7.500000 1.199687 4.375000
v 0.000000 0.969624 4.375000
v 7.500000 1.104806 4.375000
v 15.000000 1.387356 4.375000
v -15.000000 1.648700 14.000000
v -7.500000 1.592952 14.000000
v 0.000000 1.362890 14.000000
v 7.500000 1.368594 14.000000
v 15.000000 1.573777 14.000000
v -11.250000 1.484407 -17.500000
v -11.250000 0.923239 -13.125000
v -11.250000 0.833789 -8.750000
v -11.250000 1.161144 -4.375000
v -11.250000 0.833789 0.000000
v -11.250000 1.356479 4.375000
v -11.250000 0.833789 8.750000
v -11.250000 1.568476 14.000000
v -11.250000 1.012688 17.500000
v -3.750000 1.138545 -17.500000
v -3.750000 0.460905 -13.125000
v -3.750000 0.352890 -8.750000
v -3.750000 0.748187 -4.375000
v -3.750000 0.352889 0.000000
v -3.750000 0.984066 4.375000
v -3.750000 0.352889 8.750000
v -3.750000 1.240063 14.000000
v -3.750000 0.568920 17.500000
v 3.750000 1.321969 -17.500000
v 3.750000 0.280966 -13.125000
v 3.750000 0.115031 -8.750000
v 3.750000 0.722293 -4.375000
v 3.750000 0.115031 0.000000
v 3.750000 1.084656 4.375000
v 3.750000 0.115031 8.750000
v 3.750000 1.477921 14.000000
v 3.750000 0.446901 17.500000
v 11.250000 1.289431 -17.500000
v 11.250000 0.876783 -13.125000
v 11.250000 0.811008 -8.750000
v 11.250000 1.051724 -4.375000
v 11.250000 0.811008 0.000000
v 11.250000 1.195361 4.375000
v 11.250000 0.811008 8.750000
v 11.250000 1.351251 14.000000
v 11.250000 0.942559 17.500000
v -15.000000 1.493372 16.275000
v 15.000000 1.256099 16.275000
v -13.687500 1.567702 -17.500000
v -13.687500 1.270768 17.500000
v -15.000000 1.528106 -15.968750
v 15.000000 1.327137 -15.968750
v 13.687500 1.426204 -17.500000
v 13.687500 1.035173 17.500000
v -15.000000 0.847268 0.000000
v 15.000000 0.442178 0.000000
v -15.000000 0.847268 8.750000
v 15.000000 0.442178 8.750000
v -15.000000 0.847268 -8.750000
v 15.000000 0.442178 -8.750000
v 0.000000 0.721391 -17.500000
v 0.000000 -0.475217 -8.750000
v 0.000000 -0.475217 0.000000
v 0.000000 -0.475217 8.750000
v 0.000000 -0.153678 17.500000
v 7.500000 0.778440 -17.500000
v 7.500000 -0.020797 -8.750000
v 7.500000 -0.020797 0.000000
v 7.500000 -0.020797 8.750000
v 7.500000 0.191478 17.500000
v -7.500000 0.951453 -17.500000
v -7.500000 -0.245155 -8.750000
v -7.500000 -0.245155 0.000000
v -7.500000 -0.245155 8.750000
v -7.500000 0.076384 17.500000
v -15.000000 0.885728 -13.125000
v -7.500000 -0.079220 -13.125000
v 0.000000 -0.309282 -13.125000
v 7.500000 0.090506 -13.125000
v 15.000000 0.520836 -13.125000
v -15.000000 0.988017 -4.375000
v -7.500000 0.362107 -4.375000
v 0.000000 0.132045 -4.375000
v 7.500000 0.386532 -4.375000
v 15.000000 0.730039 -4.375000
v -15.000000 1.072003 4.375000
v -7.500000 0.724469 4.375000
v 0.000000 0.494407 4.375000
v 7.500000 0.629589 4.375000
v 15.000000 0.901809 4.375000
v -15.000000 1.163152 14.000000
v -7.500000 1.117735 14.000000
v 0.000000 0.887672 14.000000
v 7.500000 0.893377 14.000000
v 15.000000 1.088230 14.000000
v -11.250000 0.998860 -17.500000
v -11.250000 0.448022 -13.125000
v -11.250000 0.358572 -8.750000
v -11.250000 0.685926 -4.375000
v -11.250000 0.358572 0.000000
v -11.250000 0.881262 4.375000
v -11.250000 0.358572 8.750000
v -11.250000 1.093259 14.000000
v -11.250000 0.527141 17.500000
v -3.750000 0.652998 -17.500000
v -3.750000 -0.014313 -13.125000
v -3.750000 -0.122328 -8.750000
v -3.750000 0.272970 -4.375000
v -3.750000 -0.122328 0.000000
v -3.750000 0.508849 4.375000
v -3.750000 -0.122328 8.750000
v -3.750000 0.764846 14.000000
v -3.750000 0.083373 17.500000
v 3.750000 0.836422 -17.500000
v 3.750000 -0.194251 -13.125000
v 3.750000 -0.360186 -8.750000
v 3.750000 0.247076 -4.375000
v 3.750000 -0.360186 0.000000
v 3.750000 0.609438 4.375000
v 3.750000 -0.360186 8.750000
v 3.750000 1.002703 14.000000
v 3.750000 -0.038647 17.500000
v 11.250000 0.803884 -17.500000
v 11.250000 0.401566 -13.125000
v 11.250000 0.335791 -8.750000
v 11.250000 0.576507 -4.375000
v 11.250000 0.335791 0.000000
v 11.250000 0.720144 4.375000
v 11.250000 0.335791 8.750000
v 11.250000 0.876033 14.000000
v 11.250000 0.457012 17.500000
v -15.000000 1.007825 16.275000
v 15.000000 0.770552 16.275000
v -13.687500 1.082155 -17.500000
v -13.687500 0.785221 17.500000
v -15.000000 1.042559 -15.968750
v 15.000000 0.841590 -15.968750
v 13.687500 0.940657 -17.500000
v 13.687500 0.549626 17.500000
vt 0.501492 0.987510
vt 0.501879 0.501293
vt 0.358920 0.987245
vt 0.358968 0.501396
vt 0.643912 0.988055
vt 0.644452 0.501201
vt 0.787831 0.744613
vt 0.644680 0.744171
vt 0.502454 0.744004
vt 0.358379 0.743994
vt 0.212028 0.744309
vt 0.787198 0.622506
vt 0.644540 0.622816
vt 0.502095 0.622902
vt 0.358526 0.623001
vt 0.214198 0.621994
vt 0.787498 0.866952
vt 0.644489 0.865520
vt 0.502190 0.865068
vt 0.358569 0.864764
vt 0.213025 0.866313
vt 0.715026 0.988124
vt 0.714943 0.865753
vt 0.715136 0.744349
vt 0.715479 0.622900
vt 0.715483 0.501240
vt 0.572718 0.987980
vt 0.573281 0.865959
vt 0.573524 0.744217
vt 0.573326 0.622459
vt 0.573182 0.501005
vt 0.430195 0.987589
vt 0.430328 0.866016
vt 0.430390 0.744159
vt 0.430320 0.622506
vt 0.430394 0.501036
vt 0.273522 0.988181
vt 0.271758 0.866696
vt 0.270983 0.744209
vt 0.272068 0.622298
vt 0.273268 0.500548
vt 0.786626 0.927835
vt 0.715172 0.926996
vt 0.644137 0.926865
vt 0.572981 0.927060
vt 0.501790 0.926327
vt 0.430250 0.926804
vt 0.358691 0.926083
vt 0.272659 0.927415
vt 0.215189 0.927783
vt 0.787188 0.805671
vt 0.715427 0.805149
vt 0.644436 0.804977
vt 0.573356 0.805080
vt 0.502170 0.804713
vt 0.430307 0.804900
vt 0.358269 0.804651
vt 0.271380 0.805245
vt 0.213465 0.805385
vt 0.787972 0.683446
vt 0.715308 0.683723
vt 0.644673 0.683658
vt 0.573491 0.683248
vt 0.502408 0.683684
vt 0.430389 0.683195
vt 0.358448 0.683791
vt 0.271302 0.683129
vt 0.212452 0.683145
vt 0.786773 0.561749
vt 0.715534 0.561990
vt 0.644440 0.561897
vt 0.573202 0.561732
vt 0.501877 0.561987
vt 0.430317 0.561826
vt 0.358707 0.562068
vt 0.272798 0.561459
vt 0.215638 0.561157
vt 0.236579 0.988583
vt 0.236126 0.500526
vt 0.786217 0.967353
vt 0.216213 0.967488
vt 0.761200 0.988415
vt 0.761849 0.501063
vt 0.786784 0.522231
vt 0.215976 0.521727
vt 0.498121 0.008580
vt 0.569606 0.008322
vt 0.569683 0.069113
vt 0.498123 0.069274
vt 0.641293 0.069354
vt 0.641032 0.008682
vt 0.726732 0.007834
vt 0.727202 0.068745
vt 0.355560 0.069184
vt 0.355548 0.008487
vt 0.426818 0.008292
vt 0.426798 0.069018
vt 0.212812 0.312957
vt 0.212169 0.251899
vt 0.284864 0.251635
vt 0.284573 0.312435
vt 0.355564 0.312263
vt 0.355320 0.251458
vt 0.426476 0.251503
vt 0.426644 0.312366
vt 0.497830 0.311999
vt 0.497546 0.251290
vt 0.569610 0.251446
vt 0.569693 0.312187
vt 0.641731 0.311937
vt 0.641621 0.251280
vt 0.729017 0.251495
vt 0.728620 0.312532
vt 0.212028 0.190733
vt 0.212802 0.129792
vt 0.284521 0.130186
vt 0.284692 0.191010
vt 0.355327 0.190945
vt 0.355460 0.130102
vt 0.426674 0.129746
vt 0.426509 0.190535
vt 0.497592 0.190971
vt 0.497905 0.130188
vt 0.569680 0.129792
vt 0.569611 0.190482
vt 0.641552 0.191078
vt 0.641474 0.130288
vt 0.727932 0.129584
vt 0.728698 0.190416
vt 0.213374 0.435122
vt 0.212502 0.374238
vt 0.285057 0.373040
vt 0.284828 0.434282
vt 0.355863 0.434152
vt 0.355511 0.372807
vt 0.426719 0.373246
vt 0.427019 0.434347
vt 0.498210 0.433614
vt 0.497810 0.372355
vt 0.569672 0.373303
vt 0.569750 0.434091
vt 0.641309 0.433369
vt 0.641431 0.372050
vt 0.728242 0.373983
vt 0.727341 0.434701
vt 0.284517 0.008526
vt 0.284466 0.069276
vt 0.786975 0.373600
vt 0.784811 0.435069
vt 0.787972 0.251596
vt 0.786535 0.312671
vt 0.785802 0.129280
vt 0.787548 0.190431
vt 0.356088 0.495341
vt 0.284974 0.495410
vt 0.427282 0.495267
vt 0.498508 0.494797
vt 0.569806 0.494875
vt 0.641080 0.494532
vt 0.726478 0.495467
vt 0.213227 0.069035
vt 0.784362 0.068443
vt 0.763421 0.495869
vt 0.784024 0.029013
vt 0.213783 0.474640
vt 0.238151 0.008349
vt 0.213216 0.029518
vt 0.238800 0.495702
vt 0.783787 0.474775
vt 0.763874 0.007812
vt 0.015869 0.500000
vt 0.019874 0.624502
vt 0.006056 0.624502
vt 0.002051 0.500000
vt 0.015869 0.749004
vt 0.002051 0.749004
vt 0.022264 0.375498
vt 0.008446 0.375498
vt 0.016963 0.873506
vt 0.003146 0.873506
vt 0.015869 0.250996
vt 0.002051 0.250996
vt 0.021426 0.954432
vt 0.007609 0.954432
vt 0.024858 0.101594
vt 0.011040 0.101594
vt 0.022553 0.998008
vt 0.008735 0.998008
vt 0.020438 0.036853
vt 0.006620 0.036853
vt 0.014103 0.001992
vt 0.000285 0.001992
vt 0.053426 0.375498
vt 0.045234 0.500000
vt 0.031416 0.500000
vt 0.039608 0.375498
vt 0.058314 0.624502
vt 0.044496 0.624502
vt 0.045234 0.250996
vt 0.031416 0.250996
vt 0.045234 0.749004
vt 0.031416 0.749004
vt 0.047472 0.126494
vt 0.033655 0.126494
vt 0.063619 0.898406
vt 0.049802 0.898406
vt 0.056600 0.045568
vt 0.042783 0.045568
vt 0.054579 0.963147
vt 0.040761 0.963147
vt 0.059419 0.001992
vt 0.045602 0.001992
vt 0.048292 0.998008
vt 0.034474 0.998008
vt 0.079914 0.391506
vt 0.076640 0.284789
vt 0.090458 0.284789
vt 0.093731 0.391506
vt 0.078290 0.178074
vt 0.092108 0.178074
vt 0.081860 0.498222
vt 0.095678 0.498222
vt 0.077566 0.071358
vt 0.091384 0.071358
vt 0.073367 0.604937
vt 0.087184 0.604937
vt 0.073674 0.001992
vt 0.087491 0.001992
vt 0.072018 0.711653
vt 0.085835 0.711653
vt 0.069647 0.781019
vt 0.083465 0.781019
vt 0.119508 0.284789
vt 0.116234 0.391505
vt 0.102417 0.391505
vt 0.105690 0.284789
vt 0.122980 0.498221
vt 0.109163 0.498221
vt 0.126057 0.178073
vt 0.112239 0.178073
vt 0.122781 0.604937
vt 0.108964 0.604937
vt 0.133613 0.071358
vt 0.119796 0.071358
vt 0.135609 0.711653
vt 0.121791 0.711653
vt 0.136249 0.001992
vt 0.122431 0.001992
vt 0.142953 0.781019
vt 0.129136 0.781019
vn 0.096516 0.995169 -0.017966
vn -0.052717 0.998408 -0.020068
vn -0.050307 0.998734 0.000000
vn 0.079846 0.996807 0.000000
vn -0.047528 0.998674 -0.019794
vn -0.042611 0.998223 -0.041661
vn 0.092476 0.993420 -0.067569
vn 0.094767 0.995342 -0.017718
vn -0.057949 0.998021 -0.024408
vn -0.055030 0.998485 0.000000
vn 0.086554 0.996247 0.000000
vn 0.097204 0.995024 -0.021860
vn 0.030558 0.996147 0.082208
vn 0.030449 0.993094 0.113298
vn 0.013730 0.992122 0.124518
vn -0.000340 0.994436 0.105346
vn 0.030678 0.998660 -0.041675
vn 0.030599 0.999532 0.000000
vn 0.017595 0.999845 0.000000
vn 0.022610 0.998693 -0.045832
vn 0.030698 0.998940 -0.034306
vn 0.030610 0.999531 0.000000
vn 0.009077 0.999959 0.000000
vn 0.013209 0.999208 -0.037536
vn 0.030666 0.998959 -0.033787
vn 0.030668 0.999043 -0.031183
vn -0.003233 0.999396 -0.034610
vn 0.003996 0.999302 -0.037140
vn -0.030264 0.993698 0.107926
vn -0.043358 0.991163 0.125362
vn -0.061423 0.993681 0.093942
vn -0.037473 0.997988 0.051136
vn -0.051920 0.997585 -0.046126
vn -0.047257 0.998883 0.000000
vn -0.068213 0.997671 0.000000
vn -0.076951 0.996440 -0.034450
vn -0.043135 0.998352 -0.037863
vn -0.039298 0.999228 0.000000
vn -0.053709 0.998557 0.000000
vn -0.060895 0.997741 -0.028365
vn -0.034522 0.998703 -0.037418
vn -0.027734 0.999008 -0.034844
vn -0.032568 0.999133 -0.025929
vn -0.045021 0.998593 -0.028009
vn 0.066003 0.997344 0.030807
vn 0.113376 0.990592 0.076641
vn 0.057929 0.992389 0.108662
vn 0.053782 0.995328 0.080180
vn 0.126198 0.991582 -0.028977
vn 0.115131 0.993350 0.000000
vn 0.059790 0.998211 0.000000
vn 0.060834 0.997350 -0.039913
vn 0.106068 0.994071 -0.023933
vn 0.096902 0.995294 0.000000
vn 0.057099 0.998369 0.000000
vn 0.057740 0.997799 -0.032621
vn 0.086063 0.996009 -0.023648
vn 0.071235 0.996536 -0.042914
vn 0.052981 0.998136 -0.030293
vn 0.054869 0.997970 -0.032329
vn 0.130125 0.990698 0.039801
vn -0.054254 0.996772 0.059174
vn 0.064084 0.933299 0.353335
vn 0.048002 0.933490 0.355376
vn 0.028624 0.934866 0.353844
vn -0.007200 0.924241 0.381741
vn -0.021685 0.924710 0.380054
vn -0.023210 0.946166 0.322848
vn -0.038194 0.998968 0.024571
vn -0.013713 0.999716 -0.019467
vn -0.018848 0.999822 0.000000
vn -0.031672 0.999370 -0.016007
vn -0.032105 0.999485 0.000000
vn -0.048857 0.998681 -0.015761
vn -0.078857 0.994447 -0.069691
vn -0.047569 0.998652 -0.020753
vn -0.032672 0.952888 0.301558
vn -0.236532 0.953395 0.187326
vn 0.055614 0.918586 0.391288
vn -0.040251 0.990619 -0.130590
vn 0.221337 0.974990 0.020089
vn 0.049145 0.988550 -0.142665
vn -0.169130 0.985591 -0.002407
vn -0.026122 0.917264 0.397423
vn 0.227939 0.948614 0.219490
vn 0.156811 -0.987468 0.017824
vn 0.174253 -0.984701 0.000000
vn 0.048933 -0.998802 0.000000
vn 0.051349 -0.998479 0.020071
vn 0.046160 -0.998738 0.019796
vn 0.158383 -0.987221 0.017571
vn 0.205662 -0.976367 0.066408
vn 0.041554 -0.998300 0.040862
vn 0.056580 -0.998100 0.024410
vn 0.156324 -0.987468 0.021692
vn 0.167387 -0.985891 -0.000000
vn 0.053657 -0.998559 -0.000000
vn -0.029361 -0.957127 -0.288178
vn 0.000324 -0.950940 -0.309375
vn -0.013732 -0.992265 -0.123373
vn -0.030453 -0.993226 -0.112134
vn -0.030678 -0.998660 0.041675
vn -0.022610 -0.998693 0.045832
vn -0.017595 -0.999845 -0.000000
vn -0.030599 -0.999532 -0.000000
vn -0.030698 -0.998940 0.034306
vn -0.013209 -0.999208 0.037536
vn -0.009077 -0.999959 0.000000
vn -0.030610 -0.999531 0.000000
vn -0.030666 -0.998959 0.033787
vn -0.003996 -0.999302 0.037140
vn 0.003233 -0.999436 0.033431
vn -0.030669 -0.999080 0.029992
vn 0.028918 -0.949523 -0.312362
vn 0.036222 -0.964651 -0.261031
vn 0.061430 -0.993790 -0.092777
vn 0.043364 -0.991308 -0.124213
vn 0.051920 -0.997585 0.046126
vn 0.076951 -0.996440 0.034450
vn 0.068213 -0.997671 -0.000000
vn 0.047257 -0.998883 -0.000000
vn 0.043135 -0.998352 0.037863
vn 0.060895 -0.997741 0.028365
vn 0.053709 -0.998557 0.000000
vn 0.039298 -0.999228 0.000000
vn 0.034522 -0.998703 0.037418
vn 0.045021 -0.998593 0.028009
vn 0.032569 -0.999163 0.024747
vn 0.027736 -0.999048 0.033673
vn -0.063174 -0.954599 -0.291117
vn -0.051667 -0.956217 -0.288061
vn -0.057937 -0.992514 -0.107516
vn -0.112427 -0.990762 -0.075832
vn -0.124859 -0.991751 0.028983
vn -0.060834 -0.997350 0.039913
vn -0.059790 -0.998211 -0.000000
vn -0.113776 -0.993506 -0.000000
vn -0.104725 -0.994213 0.023937
vn -0.057740 -0.997799 0.032621
vn -0.057099 -0.998369 0.000000
vn -0.095539 -0.995426 0.000000
vn -0.084717 -0.996124 0.023651
vn -0.054869 -0.997970 0.032329
vn -0.052983 -0.998171 0.029126
vn -0.070186 -0.996645 0.042115
vn 0.184885 -0.981968 -0.039447
vn 0.053283 -0.996873 -0.058360
vn -0.051083 -0.993426 -0.102442
vn -0.068449 -0.996925 -0.038138
vn 0.007719 -0.990828 -0.134909
vn -0.030436 -0.994064 -0.104453
vn 0.024468 -0.997494 -0.066390
vn 0.023232 -0.990647 -0.134457
vn -0.235212 -0.971760 0.018922
vn -0.270735 -0.962363 -0.023669
vn -0.231336 -0.972874 -0.000000
vn -0.218200 -0.975779 0.015628
vn -0.219070 -0.975709 0.000000
vn -0.201815 -0.979302 0.015454
vn -0.217389 -0.973697 0.068237
vn 0.046127 -0.968393 -0.245126
vn 0.034257 -0.999102 0.024935
vn -0.307785 -0.951306 0.016878
vn 0.131785 -0.976771 0.168969
vn -0.151144 -0.928086 -0.340312
vn 0.303337 -0.936880 -0.173906
vn 0.143890 -0.932418 -0.331500
vn -0.350165 -0.924569 -0.150190
vn -0.161866 -0.973922 0.158981
vn 0.313870 -0.949322 -0.016532
s 1
g Gimmick_Cloth01 Gimmick_Cloth01
usemtl T_Gimmick_Cloth01SG
f 2/2/1 73/73/2 74/74/3 36/36/4
f 75/75/5 76/76/6 41/41/7 4/4/8
f 71/71/9 72/72/10 31/31/11 6/6/12
f 51/51/13 52/52/14 24/24/15 7/7/16
f 53/53/17 54/54/18 29/29/19 8/8/20
f 55/55/21 56/56/22 34/34/23 9/9/24
f 57/57/25 58/58/26 39/39/27 10/10/28
f 60/60/29 61/61/30 25/25/31 12/12/32
f 62/62/33 63/63/34 30/30/35 13/13/36
f 64/64/37 65/65/38 35/35/39 14/14/40
f 66/66/41 67/67/42 40/40/43 15/15/44
f 42/42/45 43/43/46 23/23/47 17/17/48
f 44/44/49 45/45/50 28/28/51 18/18/52
f 46/46/53 47/47/54 33/33/55 19/19/56
f 48/48/57 49/49/58 38/38/59 20/20/60
f 18/18/52 23/23/47 43/43/46 44/44/49
f 8/8/20 24/24/15 52/52/14 53/53/17
f 13/13/36 25/25/31 61/61/30 62/62/33
f 26/26/61 70/70/62 71/71/9 6/6/12
f 28/28/51 45/45/50 46/46/53 19/19/56
f 29/29/19 54/54/18 55/55/21 9/9/24
f 30/30/35 63/63/34 64/64/37 14/14/40
f 31/31/11 72/72/10 73/73/2 2/2/1
f 20/20/60 33/33/55 47/47/54 48/48/57
f 10/10/28 34/34/23 56/56/22 57/57/25
f 15/15/44 35/35/39 65/65/38 66/66/41
f 36/36/4 74/74/3 75/75/5 4/4/8
f 38/38/59 49/49/58 50/50/63 21/21/64
f 39/39/27 58/58/26 59/59/65 11/11/66
f 40/40/43 67/67/42 68/68/67 16/16/68
f 44/44/49 43/43/46 22/22/69 5/5/70
f 5/5/70 27/27/71 45/45/50 44/44/49
f 46/46/53 45/45/50 27/27/71 1/1/72
f 32/32/73 47/47/54 46/46/53 1/1/72
f 48/48/57 47/47/54 32/32/73 3/3/74
f 3/3/74 37/37/75 49/49/58 48/48/57
f 23/23/47 52/52/14 51/51/13 17/17/48
f 53/53/17 52/52/14 23/23/47 18/18/52
f 18/18/52 28/28/51 54/54/18 53/53/17
f 55/55/21 54/54/18 28/28/51 19/19/56
f 33/33/55 56/56/22 55/55/21 19/19/56
f 57/57/25 56/56/22 33/33/55 20/20/60
f 20/20/60 38/38/59 58/58/26 57/57/25
f 59/59/65 58/58/26 38/38/59 21/21/64
f 24/24/15 61/61/30 60/60/29 7/7/16
f 62/62/33 61/61/30 24/24/15 8/8/20
f 8/8/20 29/29/19 63/63/34 62/62/33
f 64/64/37 63/63/34 29/29/19 9/9/24
f 34/34/23 65/65/38 64/64/37 9/9/24
f 66/66/41 65/65/38 34/34/23 10/10/28
f 10/10/28 39/39/27 67/67/42 66/66/41
f 68/68/67 67/67/42 39/39/27 11/11/66
f 70/70/62 69/69/76 12/12/32 25/25/31
f 71/71/9 70/70/62 25/25/31 13/13/36
f 13/13/36 30/30/35 72/72/10 71/71/9
f 73/73/2 72/72/10 30/30/35 14/14/40
f 74/74/3 73/73/2 14/14/40 35/35/39
f 75/75/5 74/74/3 35/35/39 15/15/44
f 15/15/44 40/40/43 76/76/6 75/75/5
f 77/77/77 76/76/6 40/40/43 16/16/68
f 78/78/78 49/49/58 37/37/75
f 85/85/79 76/76/6 77/77/77
f 80/80/80 43/43/46 42/42/45
f 83/83/81 84/84/82 70/70/62
f 82/82/83 43/43/46 80/80/80
f 22/22/69 43/43/46 82/82/83
f 50/50/63 49/49/58 81/81/84
f 81/81/84 49/49/58 78/78/78
f 79/79/85 76/76/6 85/85/79
f 70/70/62 84/84/82 69/69/76
f 83/83/81 70/70/62 26/26/61
f 41/41/7 76/76/6 79/79/85
f 87/86/86 121/87/87 159/88/88 158/89/89
f 160/90/90 89/91/91 126/92/92 161/93/93
f 156/94/94 91/95/95 116/96/96 157/97/97
f 136/98/98 92/99/99 109/100/100 137/101/101
f 138/102/102 93/103/103 114/104/104 139/105/105
f 140/106/106 94/107/107 119/108/108 141/109/109
f 142/110/110 95/111/111 124/112/112 143/113/113
f 145/114/114 97/115/115 110/116/116 146/117/117
f 147/118/118 98/119/119 115/120/120 148/121/121
f 149/122/122 99/123/123 120/124/124 150/125/125
f 151/126/126 100/127/127 125/128/128 152/129/129
f 127/130/130 102/131/131 108/132/132 128/133/133
f 129/134/134 103/135/135 113/136/136 130/137/137
f 131/138/138 104/139/139 118/140/140 132/141/141
f 133/142/142 105/143/143 123/144/144 134/145/145
f 103/135/135 129/134/134 128/133/133 108/132/132
f 93/103/103 138/102/102 137/101/101 109/100/100
f 98/119/119 147/118/118 146/117/117 110/116/116
f 111/146/146 91/95/95 156/94/94 155/147/147
f 113/136/136 104/139/139 131/138/138 130/137/137
f 114/104/104 94/107/107 140/106/106 139/105/105
f 115/120/120 99/123/123 149/122/122 148/121/121
f 116/96/96 87/86/86 158/89/89 157/97/97
f 105/143/143 133/142/142 132/141/141 118/140/140
f 95/111/111 142/110/110 141/109/109 119/108/108
f 100/127/127 151/126/126 150/125/125 120/124/124
f 121/87/87 89/91/91 160/90/90 159/88/88
f 123/144/144 106/148/148 135/149/149 134/145/145
f 124/112/112 96/150/150 144/151/151 143/113/113
f 125/128/128 101/152/152 153/153/153 152/129/129
f 129/134/134 90/154/154 107/155/155 128/133/133
f 90/154/154 129/134/134 130/137/137 112/156/156
f 131/138/138 86/157/157 112/156/156 130/137/137
f 117/158/158 86/157/157 131/138/138 132/141/141
f 133/142/142 88/159/159 117/158/158 132/141/141
f 88/159/159 133/142/142 134/145/145 122/160/160
f 108/132/132 102/131/131 136/98/98 137/101/101
f 138/102/102 103/135/135 108/132/132 137/101/101
f 103/135/135 138/102/102 139/105/105 113/136/136
f 140/106/106 104/139/139 113/136/136 139/105/105
f 118/140/140 104/139/139 140/106/106 141/109/109
f 142/110/110 105/143/143 118/140/140 141/109/109
f 105/143/143 142/110/110 143/113/113 123/144/144
f 144/151/151 106/148/148 123/144/144 143/113/113
f 109/100/100 92/99/99 145/114/114 146/117/117
f 147/118/118 93/103/103 109/100/100 146/117/117
f 93/103/103 147/118/118 148/121/121 114/104/104
f 149/122/122 94/107/107 114/104/104 148/121/121
f 119/108/108 94/107/107 149/122/122 150/125/125
f 151/126/126 95/111/111 119/108/108 150/125/125
f 95/111/111 151/126/126 152/129/129 124/112/112
f 153/153/153 96/150/150 124/112/112 152/129/129
f 155/147/147 110/116/116 97/115/115 154/161/161
f 156/94/94 98/119/119 110/116/116 155/147/147
f 98/119/119 156/94/94 157/97/97 115/120/120
f 158/89/89 99/123/123 115/120/120 157/97/97
f 159/88/88 120/124/124 99/123/123 158/89/89
f 160/90/90 100/127/127 120/124/124 159/88/88
f 100/127/127 160/90/90 161/93/93 125/128/128
f 162/162/162 101/152/152 125/128/128 161/93/93
f 163/163/163 122/160/160 134/145/145
f 170/164/164 162/162/162 161/93/93
f 165/165/165 127/130/130 128/133/133
f 168/166/166 155/147/147 169/167/167
f 167/168/168 165/165/165 128/133/133
f 107/155/155 167/168/168 128/133/133
f 135/149/149 166/169/169 134/145/145
f 166/169/169 163/163/163 134/145/145
f 164/170/170 170/164/164 161/93/93
f 155/147/147 154/161/161 169/167/167
f 168/166/166 111/146/146 155/147/147
f 126/92/92 164/170/170 161/93/93
f 1/171/72 27/172/71 112/173/156 86/174/157
f 31/193/11 2/194/1 87/195/86 116/196/96
f 3/181/74 32/177/73 117/178/158 88/182/159
f 36/197/4 4/201/8 89/202/91 121/198/87
f 5/175/70 22/179/69 107/180/155 90/176/154
f 26/203/61 6/199/12 91/200/95 111/204/146
f 7/215/16 60/216/29 145/217/114 92/218/99
f 68/233/67 11/234/66 96/235/150 153/236/153
f 12/219/32 69/223/76 154/224/161 97/220/115
f 77/243/77 16/239/68 101/240/152 162/244/162
f 17/225/48 51/221/13 136/222/98 102/226/131
f 59/237/65 21/241/64 106/242/148 144/238/151
f 22/179/69 82/183/83 167/184/168 107/180/155
f 83/207/81 26/203/61 111/204/146 168/208/166
f 27/172/71 5/175/70 90/176/154 112/173/156
f 6/199/12 31/193/11 116/196/96 91/200/95
f 32/177/73 1/171/72 86/174/157 117/178/158
f 2/194/1 36/197/4 121/198/87 87/195/86
f 37/185/75 3/181/74 88/182/159 122/186/160
f 4/201/8 41/205/7 126/206/92 89/202/91
f 42/229/45 17/225/48 102/226/131 127/230/130
f 21/241/64 50/245/63 135/246/149 106/242/148
f 51/221/13 7/215/16 92/218/99 136/222/98
f 11/234/66 59/237/65 144/238/151 96/235/150
f 60/216/29 12/219/32 97/220/115 145/217/114
f 16/239/68 68/233/67 153/236/153 101/240/152
f 69/223/76 84/227/82 169/228/167 154/224/161
f 85/247/79 77/243/77 162/244/162 170/248/164
f 78/189/78 37/185/75 122/186/160 163/190/163
f 41/205/7 79/209/85 164/210/170 126/206/92
f 80/231/80 42/229/45 127/230/130 165/232/165
f 50/245/63 81/249/84 166/250/169 135/246/149
f 81/191/84 78/189/78 163/190/163 166/192/169
f 79/209/85 85/213/79 170/214/164 164/210/170
f 82/183/83 80/187/80 165/188/165 167/184/168
f 84/211/82 83/207/81 168/208/166 169/212/167
