# Blender 4.4.3
# www.blender.org
mtllib Gimmick_RustedKey02.mtl
o Gimmick_RustedKey02
v 8.304852 0.000000 1.000000
v 8.756664 0.000000 1.750000
v 9.842065 0.000000 2.299038
v 11.034222 0.000000 2.500000
v 11.974636 0.000000 2.299038
v 12.549039 0.000000 1.750000
v 12.750001 0.000000 1.000000
v 8.054852 0.433013 1.000000
v 8.623127 0.433013 1.875000
v 9.870147 0.433013 2.515544
v 11.145077 0.433013 2.750000
v 12.125001 0.433013 2.515544
v 12.765545 0.433013 1.875000
v 13.000001 0.433013 1.000000
v 7.554852 0.433013 1.000000
v 8.361010 0.433013 2.125000
v 9.855289 0.433013 2.948557
v 11.245619 0.433013 3.250000
v 12.375001 0.433013 2.948557
v 13.198558 0.433013 2.125000
v 13.500001 0.433013 1.000000
v 7.304852 0.000000 1.000000
v 8.262718 0.000000 2.250000
v 9.816290 0.000000 3.165063
v 11.250001 0.000000 3.500000
v 12.500001 0.000000 3.165063
v 13.415064 0.000000 2.250000
v 13.750001 0.000000 1.000000
v 7.554852 -0.433013 1.000000
v 8.361010 -0.433013 2.125000
v 9.855289 -0.433013 2.948557
v 11.245619 -0.433013 3.250000
v 12.375001 -0.433013 2.948557
v 13.198558 -0.433013 2.125000
v 13.500001 -0.433013 1.000000
v 8.054852 -0.433013 1.000000
v 8.623127 -0.433013 1.875000
v 9.870147 -0.433013 2.515544
v 11.145077 -0.433013 2.750000
v 12.125001 -0.433013 2.515544
v 12.765545 -0.433013 1.875000
v 13.000001 -0.433013 1.000000
v 8.304852 -0.000000 -1.000000
v 8.756664 -0.000000 -1.750000
v 9.842065 -0.000000 -2.299038
v 11.034222 -0.000000 -2.500000
v 11.974636 -0.000000 -2.299038
v 12.549039 -0.000000 -1.750000
v 12.750001 -0.000000 -1.000000
v 8.054852 0.433013 -1.000000
v 8.623127 0.433013 -1.875000
v 9.870147 0.433013 -2.515544
v 11.145077 0.433013 -2.750000
v 12.125001 0.433013 -2.515544
v 12.765545 0.433013 -1.875000
v 13.000001 0.433013 -1.000000
v 7.554852 0.433013 -1.000000
v 8.361010 0.433013 -2.125000
v 9.855289 0.433013 -2.948557
v 11.245619 0.433013 -3.250000
v 12.375001 0.433013 -2.948557
v 13.198558 0.433013 -2.125000
v 13.500001 0.433013 -1.000000
v 7.304852 -0.000000 -1.000000
v 8.262718 -0.000000 -2.250000
v 9.816290 -0.000000 -3.165063
v 11.250001 -0.000000 -3.500000
v 12.500001 -0.000000 -3.165063
v 13.415064 -0.000000 -2.250000
v 13.750001 -0.000000 -1.000000
v 7.554852 -0.433013 -1.000000
v 8.361010 -0.433013 -2.125000
v 9.855289 -0.433013 -2.948557
v 11.245619 -0.433013 -3.250000
v 12.375001 -0.433013 -2.948557
v 13.198558 -0.433013 -2.125000
v 13.500001 -0.433013 -1.000000
v 8.054852 -0.433013 -1.000000
v 8.623127 -0.433013 -1.875000
v 9.870147 -0.433013 -2.515544
v 11.145077 -0.433013 -2.750000
v 12.125001 -0.433013 -2.515544
v 12.765545 -0.433013 -1.875000
v 13.000001 -0.433013 -1.000000
v 3.250001 -0.382646 0.718186
v 7.543533 -0.382646 1.016572
v 3.250001 0.382646 0.718186
v 7.543533 0.382646 1.016572
v 3.250001 0.382646 -0.718186
v 7.543533 0.382646 -1.016572
v 3.250001 -0.382646 -0.718186
v 7.543533 -0.382646 -1.016572
v 6.017197 -0.382646 0.718186
v 6.017197 0.382646 0.718186
v 6.017197 0.382646 -0.718186
v 6.017197 -0.382646 -0.718186
v 4.776337 -0.382646 0.718186
v 4.776337 0.382646 0.718186
v 4.776337 0.382646 -0.718186
v 4.776337 -0.382646 -0.718186
v 5.076337 0.282645 0.618186
v 5.717196 0.282645 0.618186
v 5.076337 -0.282645 0.618186
v 5.717196 -0.282645 0.618186
v 5.076337 0.282645 -0.618186
v 5.717196 0.282645 -0.618186
v 5.076337 -0.282645 -0.618186
v 5.717196 -0.282645 -0.618186
v 7.085632 -0.382645 0.718186
v 7.085632 0.382645 0.718186
v 7.085632 0.382645 -0.718186
v 7.085632 -0.382645 -0.718186
v 3.250001 0.255519 -0.255519
v 3.250001 -0.000000 -0.361359
v 3.250001 -0.255519 -0.255519
v 3.250001 -0.361359 0.000000
v 3.250001 -0.255519 0.255519
v 3.250001 0.000000 0.361359
v 3.250001 0.255519 0.255519
v 3.250001 0.361359 -0.000000
v -13.749999 0.255520 -0.255519
v -13.749999 -0.000000 -0.361359
v -13.750001 -0.255520 -0.255519
v -13.749999 -0.361359 0.000000
v -13.750001 -0.255520 0.255519
v -13.749999 0.000000 0.361359
v -13.749999 0.255520 0.255519
v -13.749999 0.361359 -0.000000
v -13.749999 0.000000 0.000000
v -12.749999 0.500000 -1.168553
v -9.749999 0.500000 -1.168553
v -12.749999 -0.500000 -1.168553
v -9.749999 -0.500000 -1.168553
v -12.749999 -0.500000 0.200030
v -12.749999 -0.200030 0.500000
v -9.749999 -0.500000 0.200030
v -9.749999 -0.200030 0.500000
v -12.749999 0.500000 0.200030
v -12.749999 0.200030 0.500000
v -9.749999 0.500000 0.200030
v -9.749999 0.200030 0.500000
v -10.695992 -0.220170 -1.168553
v -9.810529 -0.220170 -1.168553
v -10.695992 0.220170 -1.168553
v -9.810529 0.220170 -1.168553
v -10.695992 0.220170 -2.559744
v -9.810529 0.220170 -2.559744
v -10.695992 -0.220170 -2.559744
v -9.810529 -0.220170 -2.559744
v -12.639565 -0.220170 -1.168553
v -11.754102 -0.220170 -1.168553
v -12.639565 0.220170 -1.168553
v -11.754102 0.220170 -1.168553
v -11.754102 0.220170 -3.385634
v -11.754102 -0.220170 -3.385634
v -12.639565 0.220170 -3.085664
v -12.339595 0.220170 -3.385634
v -12.639565 -0.220170 -3.085664
v -12.339595 -0.220170 -3.385634
v -11.671149 -0.220170 -1.168553
v -10.785686 -0.220170 -1.168553
v -11.671149 0.220170 -1.168553
v -10.785686 0.220170 -1.168553
v -11.671149 0.220170 -1.729315
v -10.785686 0.220170 -1.729315
v -11.671149 -0.220170 -1.729315
v -10.785686 -0.220170 -1.729315
vn 0.6398 -0.0000 -0.7686
vn 0.9802 -0.0000 -0.1978
vn 0.4491 0.8907 -0.0707
vn 0.3126 0.8757 -0.3680
vn 0.3374 -0.0000 -0.9413
vn 0.1542 0.8597 -0.4869
vn 0.0240 -0.0000 -0.9997
vn -0.0121 0.8997 -0.4364
vn -0.4513 -0.0000 -0.8924
vn -0.1823 0.9213 -0.3436
vn -0.8622 -0.0000 -0.5066
vn -0.3331 0.9224 -0.1953
vn -0.9967 -0.0000 -0.0816
vn -0.4637 0.8853 -0.0337
vn -0.5677 0.8046 0.1744
vn -0.4516 0.7210 0.5256
vn -0.2412 0.7751 0.5840
vn 0.0003 0.8059 0.5921
vn 0.2967 0.8046 0.5145
vn 0.5215 0.7984 0.3011
vn 0.5356 0.8426 0.0562
vn -0.9724 -0.0000 0.2332
vn -0.6477 -0.0000 0.7619
vn -0.3666 -0.0000 0.9304
vn 0.0001 -0.0000 1.0000
vn 0.4996 -0.0000 0.8663
vn 0.8660 -0.0000 0.5000
vn 0.9956 -0.0000 0.0941
vn -0.5677 -0.8046 0.1744
vn -0.4516 -0.7210 0.5256
vn -0.2412 -0.7751 0.5840
vn 0.0003 -0.8059 0.5921
vn 0.2968 -0.8046 0.5144
vn 0.5215 -0.7984 0.3011
vn 0.5356 -0.8426 0.0562
vn 0.4491 -0.8907 -0.0707
vn 0.3126 -0.8757 -0.3680
vn 0.1542 -0.8597 -0.4869
vn -0.0121 -0.8997 -0.4364
vn -0.1823 -0.9213 -0.3436
vn -0.3331 -0.9224 -0.1953
vn -0.4637 -0.8853 -0.0337
vn 0.6398 -0.0000 0.7686
vn 0.3126 0.8757 0.3680
vn 0.4491 0.8907 0.0707
vn 0.9802 -0.0000 0.1978
vn 0.3374 -0.0000 0.9413
vn 0.1542 0.8597 0.4869
vn 0.0240 -0.0000 0.9997
vn -0.0121 0.8997 0.4364
vn -0.4513 -0.0000 0.8924
vn -0.1823 0.9213 0.3436
vn -0.8622 -0.0000 0.5066
vn -0.3331 0.9224 0.1953
vn -0.9967 -0.0000 0.0816
vn -0.4637 0.8853 0.0337
vn -0.4516 0.7210 -0.5256
vn -0.5677 0.8046 -0.1744
vn -0.2412 0.7751 -0.5840
vn 0.0003 0.8059 -0.5921
vn 0.2967 0.8046 -0.5145
vn 0.5215 0.7984 -0.3011
vn 0.5356 0.8426 -0.0562
vn -0.6477 -0.0000 -0.7619
vn -0.9724 -0.0000 -0.2332
vn -0.3666 -0.0000 -0.9304
vn 0.0001 -0.0000 -1.0000
vn 0.4996 -0.0000 -0.8663
vn 0.8660 -0.0000 -0.5000
vn 0.9956 -0.0000 -0.0941
vn -0.4516 -0.7210 -0.5256
vn -0.5677 -0.8046 -0.1744
vn -0.2412 -0.7751 -0.5840
vn 0.0003 -0.8059 -0.5921
vn 0.2967 -0.8046 -0.5145
vn 0.5215 -0.7984 -0.3011
vn 0.5356 -0.8426 -0.0562
vn 0.3126 -0.8757 0.3680
vn 0.4491 -0.8907 0.0707
vn 0.1542 -0.8597 0.4869
vn -0.0121 -0.8997 0.4364
vn -0.1823 -0.9213 0.3436
vn -0.3331 -0.9224 0.1953
vn -0.4637 -0.8853 0.0337
vn -0.0000 -0.0000 1.0000
vn 0.0403 -0.0000 0.9992
vn -0.0000 1.0000 -0.0000
vn 0.0428 0.9991 -0.0000
vn -0.0000 -0.0000 -1.0000
vn 0.0403 -0.0000 -0.9992
vn -0.0000 -1.0000 -0.0000
vn 0.0428 -0.9991 -0.0000
vn -1.0000 -0.0000 -0.0000
vn -0.0547 -0.0000 0.9985
vn -0.1919 -0.0000 0.9814
vn -0.0578 0.9983 -0.0000
vn -0.0547 -0.0000 -0.9985
vn -0.1919 -0.0000 -0.9814
vn -0.0578 -0.9983 -0.0000
vn -0.1312 -0.0000 0.9914
vn 0.1312 -0.0000 0.9914
vn -0.1246 0.9922 -0.0000
vn 0.1246 0.9922 -0.0000
vn -0.1312 -0.0000 -0.9914
vn 0.1312 -0.0000 -0.9914
vn -0.1246 -0.9922 -0.0000
vn 0.1246 -0.9922 -0.0000
vn -0.5460 -0.0000 0.8378
vn -0.5460 -0.0000 -0.8378
vn -0.0000 0.7071 -0.7071
vn -0.0080 -0.0001 -1.0000
vn -0.0080 0.7071 -0.7071
vn -0.0000 -0.7071 -0.7071
vn -0.0080 -0.7071 -0.7070
vn -0.0080 -1.0000 0.0001
vn -0.0000 -0.7071 0.7071
vn -0.0080 -0.7070 0.7071
vn -0.0080 0.0001 1.0000
vn -0.0000 0.7071 0.7071
vn -0.0080 0.7071 0.7070
vn -0.0080 1.0000 -0.0001
vn 1.0000 -0.0000 -0.0000
vn -0.7071 -0.0000 -0.7071
vt 0.136858 0.320903
vt 0.178467 0.345860
vt 0.174963 0.374082
vt 0.118221 0.340228
vt 0.104571 0.259874
vt 0.076980 0.263553
vt 0.093442 0.192005
vt 0.065083 0.184670
vt 0.105075 0.139063
vt 0.081268 0.123948
vt 0.135247 0.106845
vt 0.121015 0.083695
vt 0.177222 0.094871
vt 0.174592 0.066401
vt 0.175866 0.402795
vt 0.104682 0.355806
vt 0.051782 0.263939
vt 0.036760 0.177833
vt 0.056610 0.109589
vt 0.106270 0.059451
vt 0.173903 0.037607
vt 0.172736 0.431886
vt 0.084571 0.374167
vt 0.024515 0.271299
vt 0.007812 0.176109
vt 0.032138 0.095159
vt 0.090830 0.034947
vt 0.171236 0.008715
vt 0.382892 0.807128
vt 0.294789 0.862758
vt 0.291594 0.834290
vt 0.363011 0.788566
vt 0.444195 0.705989
vt 0.417076 0.698147
vt 0.462409 0.611075
vt 0.433394 0.612337
vt 0.439262 0.528996
vt 0.414266 0.543686
vt 0.380212 0.467649
vt 0.365193 0.492333
vt 0.299796 0.441034
vt 0.297399 0.469914
vt 0.292623 0.805437
vt 0.349684 0.772892
vt 0.391909 0.697403
vt 0.404941 0.618793
vt 0.389504 0.557703
vt 0.350096 0.516448
vt 0.296553 0.498704
vt 0.289286 0.777651
vt 0.331279 0.753491
vt 0.364397 0.693476
vt 0.376453 0.625836
vt 0.365530 0.572861
vt 0.335664 0.540038
vt 0.293680 0.526992
vt 0.332143 0.318883
vt 0.351080 0.337919
vt 0.295688 0.372241
vt 0.291503 0.344733
vt 0.364096 0.258710
vt 0.391698 0.262648
vt 0.376271 0.191431
vt 0.404652 0.184459
vt 0.364980 0.138729
vt 0.388821 0.123579
vt 0.334538 0.106291
vt 0.348828 0.083164
vt 0.292501 0.094901
vt 0.295095 0.066015
vt 0.364783 0.353279
vt 0.295684 0.401008
vt 0.416850 0.263338
vt 0.433013 0.178046
vt 0.413602 0.109441
vt 0.363637 0.058898
vt 0.295726 0.037160
vt 0.385114 0.371337
vt 0.300003 0.429277
vt 0.444015 0.271081
vt 0.461985 0.176875
vt 0.438243 0.095345
vt 0.379182 0.034433
vt 0.298279 0.007815
vt 0.081955 0.802350
vt 0.102471 0.784469
vt 0.171746 0.832860
vt 0.167561 0.861771
vt 0.024171 0.700283
vt 0.051504 0.693095
vt 0.007812 0.605087
vt 0.036785 0.607067
vt 0.033219 0.523501
vt 0.057746 0.538926
vt 0.093919 0.464453
vt 0.108245 0.489506
vt 0.174090 0.440786
vt 0.176097 0.469370
vt 0.116349 0.769236
vt 0.171776 0.804217
vt 0.076726 0.692915
vt 0.065076 0.614189
vt 0.082076 0.553607
vt 0.122677 0.513954
vt 0.176387 0.498231
vt 0.135443 0.750374
vt 0.176057 0.776156
vt 0.104461 0.689499
vt 0.093413 0.621801
vt 0.105568 0.569380
vt 0.136455 0.537773
vt 0.178579 0.526456
vt 0.927727 0.595008
vt 0.927727 0.505360
vt 0.972675 0.505360
vt 0.972675 0.595008
vt 0.630424 0.257309
vt 0.630424 0.168615
vt 0.713890 0.168615
vt 0.713890 0.257309
vt 0.843128 0.595008
vt 0.843128 0.505360
vt 0.888077 0.505360
vt 0.888077 0.595008
vt 0.759489 0.257309
vt 0.759489 0.168615
vt 0.842956 0.168615
vt 0.842956 0.257309
vt 0.777843 0.891586
vt 0.777843 0.808414
vt 0.822157 0.808414
vt 0.822157 0.891586
vt 0.972675 0.432479
vt 0.927727 0.432479
vt 0.927727 0.369725
vt 0.972675 0.369725
vt 0.713890 0.096510
vt 0.630424 0.096510
vt 0.630424 0.034424
vt 0.713890 0.034424
vt 0.888077 0.432479
vt 0.843128 0.432479
vt 0.843128 0.369725
vt 0.888077 0.369725
vt 0.842956 0.096510
vt 0.759489 0.096510
vt 0.759489 0.034424
vt 0.842956 0.034424
vt 0.966802 0.450099
vt 0.966802 0.487739
vt 0.933600 0.487739
vt 0.933600 0.450099
vt 0.708079 0.113943
vt 0.708079 0.151182
vt 0.636235 0.151182
vt 0.636235 0.113943
vt 0.882204 0.450099
vt 0.882204 0.487739
vt 0.849002 0.487739
vt 0.849002 0.450099
vt 0.837145 0.113943
vt 0.837145 0.151182
vt 0.765300 0.151182
vt 0.765300 0.113943
vt 0.927727 0.342831
vt 0.972675 0.342831
vt 0.613085 0.007816
vt 0.731229 0.007816
vt 0.843128 0.342831
vt 0.888077 0.342831
vt 0.742150 0.007816
vt 0.860295 0.007816
vt 0.587221 0.007816
vt 0.603236 0.007816
vt 0.603236 0.992188
vt 0.587221 0.992188
vt 0.475118 0.007816
vt 0.491133 0.007816
vt 0.491133 0.992188
vt 0.475118 0.992188
vt 0.507148 0.007816
vt 0.507148 0.992188
vt 0.523162 0.007816
vt 0.523162 0.992188
vt 0.539177 0.007816
vt 0.539177 0.992188
vt 0.555192 0.007816
vt 0.555192 0.992188
vt 0.571206 0.007816
vt 0.571206 0.992188
vt 0.771638 0.409769
vt 0.756808 0.415813
vt 0.756927 0.394889
vt 0.742048 0.409600
vt 0.736004 0.394769
vt 0.742217 0.380009
vt 0.757047 0.373965
vt 0.771807 0.380178
vt 0.777851 0.395008
vt 0.953948 0.968581
vt 0.953948 0.794869
vt 0.977114 0.794869
vt 0.977114 0.968581
vt 0.889220 0.187880
vt 0.889220 0.007816
vt 0.971365 0.007816
vt 0.971365 0.187880
vt 0.671048 0.986856
vt 0.671048 0.813144
vt 0.728952 0.813144
vt 0.728952 0.986856
vt 0.185834 0.285121
vt 0.185834 0.105057
vt 0.267978 0.105057
vt 0.267978 0.285121
vt 0.085995 0.894371
vt 0.028090 0.894371
vt 0.045460 0.877002
vt 0.068625 0.877002
vt 0.262670 0.696045
vt 0.204766 0.696045
vt 0.204766 0.616799
vt 0.262670 0.616799
vt 0.285983 0.285121
vt 0.285983 0.105057
vt 0.871216 0.187880
vt 0.871216 0.007816
vt 0.028090 0.973618
vt 0.085995 0.973618
vt 0.222135 0.713415
vt 0.245301 0.713415
vt 0.874364 0.809722
vt 0.925636 0.809722
vt 0.925636 0.890278
vt 0.874364 0.890278
vt 0.890968 0.695063
vt 0.890968 0.643791
vt 0.916466 0.643791
vt 0.916466 0.695063
vt 0.190581 0.891355
vt 0.241854 0.891355
vt 0.241854 0.971911
vt 0.190581 0.971911
vt 0.750023 0.723280
vt 0.750023 0.642724
vt 0.775521 0.642724
vt 0.775521 0.723280
vt 0.819623 0.723280
vt 0.819623 0.642724
vt 0.845120 0.642724
vt 0.845120 0.723280
vt 0.368713 0.968221
vt 0.419985 0.857212
vt 0.419985 0.985590
vt 0.386083 0.985590
vt 0.776045 0.337709
vt 0.750548 0.337709
vt 0.750548 0.303807
vt 0.776045 0.303807
vt 0.687251 0.764189
vt 0.687251 0.635811
vt 0.712749 0.635811
vt 0.712749 0.764189
vt 0.794161 0.573649
vt 0.767959 0.573649
vt 0.767959 0.459572
vt 0.794161 0.459572
vt 0.670682 0.470770
vt 0.721954 0.581779
vt 0.670682 0.581779
vt 0.794161 0.591499
vt 0.767959 0.591499
vt 0.368713 0.857212
vt 0.688051 0.453401
vt 0.721954 0.453401
vt 0.938611 0.693861
vt 0.938611 0.642589
vt 0.971082 0.642589
vt 0.971082 0.693861
vt 0.674635 0.432167
vt 0.674635 0.380895
vt 0.700132 0.380895
vt 0.700132 0.432167
vt 0.904591 0.303142
vt 0.904591 0.251870
vt 0.937061 0.251870
vt 0.937061 0.303142
vt 0.662730 0.338835
vt 0.662730 0.306364
vt 0.688227 0.306364
vt 0.688227 0.338835
vt 0.702842 0.338835
vt 0.702842 0.306364
vt 0.728340 0.306364
vt 0.728340 0.338835
s 1
usemtl T_Gimmick_RustedKey02SG.001
f 2/1/1 1/2/2 8/3/3 9/4/4
f 3/5/5 2/1/1 9/4/4 10/6/6
f 4/7/7 3/5/5 10/6/6 11/8/8
f 5/9/9 4/7/7 11/8/8 12/10/10
f 6/11/11 5/9/9 12/10/10 13/12/12
f 7/13/13 6/11/11 13/12/12 14/14/14
f 9/4/4 8/3/3 15/15/15 16/16/16
f 10/6/6 9/4/4 16/16/16 17/17/17
f 11/8/8 10/6/6 17/17/17 18/18/18
f 12/10/10 11/8/8 18/18/18 19/19/19
f 13/12/12 12/10/10 19/19/19 20/20/20
f 14/14/14 13/12/12 20/20/20 21/21/21
f 16/16/16 15/15/15 22/22/22 23/23/23
f 17/17/17 16/16/16 23/23/23 24/24/24
f 18/18/18 17/17/17 24/24/24 25/25/25
f 19/19/19 18/18/18 25/25/25 26/26/26
f 20/20/20 19/19/19 26/26/26 27/27/27
f 21/21/21 20/20/20 27/27/27 28/28/28
f 23/29/23 22/30/22 29/31/29 30/32/30
f 24/33/24 23/29/23 30/32/30 31/34/31
f 25/35/25 24/33/24 31/34/31 32/36/32
f 26/37/26 25/35/25 32/36/32 33/38/33
f 27/39/27 26/37/26 33/38/33 34/40/34
f 28/41/28 27/39/27 34/40/34 35/42/35
f 30/32/30 29/31/29 36/43/36 37/44/37
f 31/34/31 30/32/30 37/44/37 38/45/38
f 32/36/32 31/34/31 38/45/38 39/46/39
f 33/38/33 32/36/32 39/46/39 40/47/40
f 34/40/34 33/38/33 40/47/40 41/48/41
f 35/42/35 34/40/34 41/48/41 42/49/42
f 37/44/37 36/43/36 1/50/2 2/51/1
f 38/45/38 37/44/37 2/51/1 3/52/5
f 39/46/39 38/45/38 3/52/5 4/53/7
f 40/47/40 39/46/39 4/53/7 5/54/9
f 41/48/41 40/47/40 5/54/9 6/55/11
f 42/49/42 41/48/41 6/55/11 7/56/13
f 44/57/43 51/58/44 50/59/45 43/60/46
f 45/61/47 52/62/48 51/58/44 44/57/43
f 46/63/49 53/64/50 52/62/48 45/61/47
f 47/65/51 54/66/52 53/64/50 46/63/49
f 48/67/53 55/68/54 54/66/52 47/65/51
f 49/69/55 56/70/56 55/68/54 48/67/53
f 51/58/44 58/71/57 57/72/58 50/59/45
f 52/62/48 59/73/59 58/71/57 51/58/44
f 53/64/50 60/74/60 59/73/59 52/62/48
f 54/66/52 61/75/61 60/74/60 53/64/50
f 55/68/54 62/76/62 61/75/61 54/66/52
f 56/70/56 63/77/63 62/76/62 55/68/54
f 58/71/57 65/78/64 64/79/65 57/72/58
f 59/73/59 66/80/66 65/78/64 58/71/57
f 60/74/60 67/81/67 66/80/66 59/73/59
f 61/75/61 68/82/68 67/81/67 60/74/60
f 62/76/62 69/83/69 68/82/68 61/75/61
f 63/77/63 70/84/70 69/83/69 62/76/62
f 65/85/64 72/86/71 71/87/72 64/88/65
f 66/89/66 73/90/73 72/86/71 65/85/64
f 67/91/67 74/92/74 73/90/73 66/89/66
f 68/93/68 75/94/75 74/92/74 67/91/67
f 69/95/69 76/96/76 75/94/75 68/93/68
f 70/97/70 77/98/77 76/96/76 69/95/69
f 72/86/71 79/99/78 78/100/79 71/87/72
f 73/90/73 80/101/80 79/99/78 72/86/71
f 74/92/74 81/102/81 80/101/80 73/90/73
f 75/94/75 82/103/82 81/102/81 74/92/74
f 76/96/76 83/104/83 82/103/82 75/94/75
f 77/98/77 84/105/84 83/104/83 76/96/76
f 79/99/78 44/106/43 43/107/46 78/100/79
f 80/101/80 45/108/47 44/106/43 79/99/78
f 81/102/81 46/109/49 45/108/47 80/101/80
f 82/103/82 47/110/51 46/109/49 81/102/81
f 83/104/83 48/111/53 47/110/51 82/103/82
f 84/105/84 49/112/55 48/111/53 83/104/83
f 50/59/45 8/3/3 1/2/2 43/60/46
f 49/69/55 7/13/13 14/14/14 56/70/56
f 57/72/58 15/15/15 8/3/3 50/59/45
f 56/70/56 14/14/14 21/21/21 63/77/63
f 64/79/65 22/22/22 15/15/15 57/72/58
f 63/77/63 21/21/21 28/28/28 70/84/70
f 71/87/72 29/31/29 22/30/22 64/88/65
f 70/97/70 28/41/28 35/42/35 77/98/77
f 78/100/79 36/43/36 29/31/29 71/87/72
f 77/98/77 35/42/35 42/49/42 84/105/84
f 43/107/46 1/50/2 36/43/36 78/100/79
f 84/105/84 42/49/42 7/56/13 49/112/55
f 85/113/85 97/114/86 98/115/86 87/116/85
f 87/117/87 98/118/88 99/119/88 89/120/87
f 89/121/89 99/122/90 100/123/90 91/124/89
f 91/125/91 100/126/92 97/127/92 85/128/91
f 91/129/93 85/130/93 87/131/93 89/132/93
f 94/133/94 93/134/94 109/135/95 110/136/95
f 95/137/96 94/138/96 110/139/87 111/140/87
f 96/141/97 95/142/97 111/143/98 112/144/98
f 93/145/99 96/146/99 112/147/91 109/148/91
f 102/149/100 101/150/101 103/151/101 104/152/100
f 106/153/102 105/154/103 101/155/103 102/156/102
f 108/157/104 107/158/105 105/159/105 106/160/104
f 104/161/106 103/162/107 107/163/107 108/164/106
f 98/115/86 97/114/86 103/151/101 101/150/101
f 93/134/94 94/133/94 102/149/100 104/152/100
f 99/119/88 98/118/88 101/155/103 105/154/103
f 94/138/96 95/137/96 106/153/102 102/156/102
f 100/123/90 99/122/90 105/159/105 107/158/105
f 95/142/97 96/141/97 108/157/104 106/160/104
f 97/127/92 100/126/92 107/163/107 103/162/107
f 96/146/99 93/145/99 104/161/106 108/164/106
f 110/136/95 109/135/95 86/165/108 88/166/108
f 111/140/87 110/139/87 88/167/87 90/168/87
f 112/144/98 111/143/98 90/169/109 92/170/109
f 109/148/91 112/147/91 92/171/91 86/172/91
f 113/173/110 114/174/89 122/175/111 121/176/112
f 114/177/89 115/178/113 123/179/114 122/180/111
f 115/178/113 116/181/91 124/182/115 123/179/114
f 116/181/91 117/183/116 125/184/117 124/182/115
f 117/183/116 118/185/85 126/186/118 125/184/117
f 118/185/85 119/187/119 127/188/120 126/186/118
f 119/187/119 120/189/87 128/190/121 127/188/120
f 120/189/87 113/173/110 121/176/112 128/190/121
f 121/191/112 122/192/111 129/193/93
f 122/192/111 123/194/114 129/193/93
f 123/194/114 124/195/115 129/193/93
f 124/195/115 125/196/117 129/193/93
f 125/196/117 126/197/118 129/193/93
f 126/197/118 127/198/120 129/193/93
f 127/198/120 128/199/121 129/193/93
f 128/199/121 121/191/112 129/193/93
f 135/200/85 137/201/85 141/202/85 139/203/85
f 138/204/87 140/205/87 131/206/87 130/207/87
f 130/208/89 131/209/89 133/210/89 132/211/89
f 132/212/91 133/213/91 136/214/91 134/215/91
f 138/216/93 134/217/93 135/218/93 139/219/93
f 140/220/122 136/221/122 133/222/122 131/223/122
f 135/224/116 134/215/116 136/214/116 137/225/116
f 138/204/119 139/226/119 141/227/119 140/205/119
f 132/228/93 134/217/93 138/216/93 130/229/93
f 137/230/122 136/221/122 140/220/122 141/231/122
f 144/232/87 145/233/87 147/234/87 146/235/87
f 146/236/89 147/237/89 149/238/89 148/239/89
f 148/240/91 149/241/91 143/242/91 142/243/91
f 143/244/122 149/245/122 147/246/122 145/247/122
f 148/248/93 142/249/93 144/250/93 146/251/93
f 156/252/87 153/253/87 154/254/87 157/255/87
f 159/256/89 157/257/89 154/258/89 155/259/89
f 151/260/122 155/261/122 154/262/122 153/263/122
f 156/264/93 158/265/93 150/266/93 152/267/93
f 158/268/91 151/269/91 150/270/91
f 156/264/123 157/271/123 159/272/123 158/265/123
f 152/273/87 153/253/87 156/252/87
f 158/268/91 159/274/91 155/275/91 151/269/91
f 162/276/87 163/277/87 165/278/87 164/279/87
f 164/280/89 165/281/89 167/282/89 166/283/89
f 166/284/91 167/285/91 161/286/91 160/287/91
f 161/288/122 167/289/122 165/290/122 163/291/122
f 166/292/93 160/293/93 162/294/93 164/295/93
