# This file uses centimeters as units for non-parametric coordinates.

mtllib Gimmick_Drawer01_Flower.mtl
g default
v -30.500000 0.000002 13.534341
v 30.500000 0.000002 13.534341
v -30.500000 13.000000 13.534341
v 30.500000 13.000000 13.534341
v -30.500000 13.000000 -12.011575
v 30.500000 13.000000 -10.000000
v -30.500000 0.000002 -12.011575
v 30.500000 0.000002 -10.000000
v -29.000000 13.000000 12.034341
v 29.000000 13.000000 12.034341
v 29.000000 13.000000 -8.500000
v -29.000000 13.000000 -10.511575
v -29.000000 1.982283 12.034341
v 29.000000 1.982283 12.034341
v 29.000000 1.982283 -8.500000
v -29.000000 1.982283 -10.511575
v -11.051676 6.806101 13.987015
v -10.192223 6.450103 13.987015
v -11.407673 7.665553 13.987015
v -10.192223 6.450103 13.384392
v -11.051676 6.806101 13.384392
v -11.407673 7.665553 13.384392
v 11.051676 6.806101 13.987015
v 11.407673 7.665553 13.987015
v 10.192223 6.450103 13.987015
v 11.407673 7.665553 13.384392
v 11.051676 6.806101 13.384392
v 10.192223 6.450103 13.384392
v -11.051676 10.956394 13.987015
v -11.407673 10.096939 13.987015
v -10.192223 11.312389 13.987015
v -11.407673 10.096939 13.384392
v -11.051676 10.956394 13.384392
v -10.192223 11.312389 13.384392
v 11.051676 10.956394 13.987015
v 10.192223 11.312389 13.987015
v 11.407673 10.096939 13.987015
v 10.192223 11.312389 13.384392
v 11.051676 10.956394 13.384392
v 11.407673 10.096939 13.384392
v -7.768274 8.980888 15.903241
v -7.634299 8.980888 16.403240
v -7.268274 8.980888 16.769268
v -6.768274 8.980888 16.903240
v -8.268274 9.846914 15.903241
v -8.067312 9.846914 16.653240
v -7.518274 9.846914 17.202278
v -6.768274 9.846914 17.403240
v -9.268274 9.846913 15.903241
v -8.933336 9.846913 17.153240
v -8.018274 9.846913 18.068306
v -6.768274 9.846913 18.403240
v -9.768274 8.980888 15.903241
v -9.366350 8.980888 17.403240
v -8.268274 8.980888 18.501316
v -6.768274 8.980888 18.903240
v -9.268274 8.114862 15.903241
v -8.933336 8.114862 17.153240
v -8.018274 8.114862 18.068306
v -6.768274 8.114862 18.403240
v -8.268274 8.114863 15.903241
v -8.067312 8.114863 16.653240
v -7.518274 8.114863 17.202278
v -6.768274 8.114863 17.403240
v -7.768274 8.980888 13.927411
v -8.268274 9.846914 13.927411
v -9.268274 9.846913 13.927411
v -9.768274 8.980888 13.927411
v -9.268274 8.114862 13.927411
v -8.268274 8.114863 13.927411
v 7.768274 8.980888 15.903241
v 7.634299 8.980888 16.403240
v 7.268274 8.980888 16.769268
v 6.768274 8.980888 16.903240
v 8.268274 9.846914 15.903241
v 8.067312 9.846914 16.653240
v 7.518274 9.846914 17.202278
v 6.768274 9.846914 17.403240
v 9.268274 9.846913 15.903241
v 8.933336 9.846913 17.153240
v 8.018274 9.846913 18.068306
v 6.768274 9.846913 18.403240
v 9.768274 8.980888 15.903241
v 9.366350 8.980888 17.403240
v 8.268274 8.980888 18.501316
v 6.768274 8.980888 18.903240
v 9.268274 8.114862 15.903241
v 8.933336 8.114862 17.153240
v 8.018274 8.114862 18.068306
v 6.768274 8.114862 18.403240
v 8.268274 8.114863 15.903241
v 8.067312 8.114863 16.653240
v 7.518274 8.114863 17.202278
v 6.768274 8.114863 17.403240
v 7.768274 8.980888 13.927411
v 8.268274 9.846914 13.927411
v 9.268274 9.846913 13.927411
v 9.768274 8.980888 13.927411
v 9.268274 8.114862 13.927411
v 8.268274 8.114863 13.927411
v 2.786467 4.243538 13.458550
v 2.370310 5.060291 13.458550
v 1.722131 5.708471 13.458550
v 0.905378 6.124626 13.458549
v 0.000000 6.268024 13.458549
v -0.905378 6.124626 13.458549
v -1.722131 5.708469 13.458550
v -2.370309 5.060291 13.458549
v -2.786466 4.243538 13.458550
v -2.929863 3.338161 13.458550
v -2.786466 2.432783 13.458550
v -2.370309 1.616032 13.458550
v -1.722130 0.967852 13.458550
v -0.905378 0.551697 13.458550
v -0.000000 0.408298 13.458550
v 0.905377 0.551697 13.458550
v 1.722130 0.967852 13.458550
v 2.370309 1.616032 13.458550
v 2.786465 2.432785 13.458550
v 2.929862 3.338161 13.458550
v 2.786467 4.243538 14.069944
v 2.370310 5.060291 14.069943
v 1.722131 5.708471 14.069944
v 0.905378 6.124626 14.069943
v 0.000000 6.268024 14.069944
v -0.905378 6.124626 14.069944
v -1.722131 5.708469 14.069944
v -2.370309 5.060291 14.069943
v -2.786466 4.243538 14.069943
v -2.929863 3.338161 14.069944
v -2.786466 2.432783 14.069944
v -2.370309 1.616032 14.069944
v -1.722130 0.967852 14.069944
v -0.905378 0.551697 14.069943
v -0.000000 0.408298 14.069943
v 0.905377 0.551697 14.069943
v 1.722130 0.967852 14.069944
v 2.370309 1.616032 14.069944
v 2.786465 2.432783 14.069944
v 2.929862 3.338161 14.069944
v 0.000000 3.338161 14.069944
vt 0.367380 0.558233
vt 0.367380 0.796761
vt 0.245996 0.796761
vt 0.245996 0.558233
vt 0.843747 0.558396
vt 0.843747 0.778141
vt 0.722363 0.778141
vt 0.722363 0.558396
vt 0.225368 0.586245
vt 0.225368 0.777978
vt 0.122493 0.777978
vt 0.122493 0.586245
vt 0.110687 0.586245
vt 0.110687 0.796761
vt 0.007812 0.796761
vt 0.007812 0.586245
vt 0.245996 0.549411
vt 0.245996 0.007852
vt 0.447121 0.007852
vt 0.447121 0.549411
vt 0.007812 0.577423
vt 0.007812 0.007852
vt 0.236949 0.007852
vt 0.236949 0.577423
vt 0.951725 0.577389
vt 0.881152 0.777944
vt 0.895158 0.763938
vt 0.965731 0.563383
vt 0.992188 0.007812
vt 0.978190 0.021311
vt 0.868693 0.558183
vt 0.854687 0.572189
vt 0.590039 0.577423
vt 0.590039 0.007852
vt 0.711423 0.007852
vt 0.711423 0.577423
vt 0.457715 0.577578
vt 0.457715 0.007852
vt 0.579132 0.007852
vt 0.579132 0.577578
vt 0.837044 0.549411
vt 0.837044 0.007852
vt 0.939919 0.007852
vt 0.939919 0.549411
vt 0.825269 0.007852
vt 0.825269 0.549574
vt 0.722363 0.549574
vt 0.722363 0.007852
vt 0.854687 0.782704
vt 0.978190 0.563210
vt 0.895158 0.572204
vt 0.992188 0.577707
vt 0.965731 0.021824
vt 0.881152 0.558198
vt 0.951725 0.007818
vt 0.868693 0.796710
vt 0.973779 0.593823
vt 0.979424 0.593823
vt 0.979424 0.784765
vt 0.973779 0.784765
vt 0.630970 0.785238
vt 0.625326 0.785238
vt 0.625326 0.594295
vt 0.630970 0.594295
vt 0.660612 0.594405
vt 0.666334 0.594405
vt 0.666334 0.617492
vt 0.660612 0.617492
vt 0.648691 0.617492
vt 0.642969 0.617492
vt 0.642969 0.594405
vt 0.648691 0.594405
vt 0.979424 0.792816
vt 0.973779 0.792816
vt 0.666334 0.586245
vt 0.660612 0.586245
vt 0.642969 0.586245
vt 0.648691 0.586245
vt 0.979424 0.585772
vt 0.973779 0.585772
vt 0.666334 0.625652
vt 0.660612 0.625652
vt 0.625326 0.793288
vt 0.630970 0.793288
vt 0.625326 0.586245
vt 0.630970 0.586245
vt 0.642969 0.625652
vt 0.648691 0.625652
vt 0.390466 0.655525
vt 0.596850 0.655525
vt 0.600174 0.663550
vt 0.387142 0.663550
vt 0.600174 0.686252
vt 0.387142 0.686252
vt 0.398491 0.652201
vt 0.588825 0.652201
vt 0.390466 0.694277
vt 0.596850 0.694277
vt 0.588825 0.697601
vt 0.398491 0.697601
vt 0.408599 0.639644
vt 0.402854 0.640525
vt 0.399419 0.631892
vt 0.406809 0.630777
vt 0.414699 0.639618
vt 0.414534 0.630653
vt 0.421004 0.640467
vt 0.422142 0.631642
vt 0.395764 0.623172
vt 0.405622 0.622398
vt 0.415051 0.622316
vt 0.424017 0.622919
vt 0.394381 0.614141
vt 0.405084 0.614244
vt 0.415170 0.614164
vt 0.424838 0.614037
vt 0.395966 0.605354
vt 0.405495 0.606120
vt 0.414912 0.606039
vt 0.424159 0.605164
vt 0.399651 0.597107
vt 0.407051 0.597947
vt 0.414793 0.597718
vt 0.422433 0.596489
vt 0.402925 0.588601
vt 0.408619 0.589168
vt 0.414738 0.588866
vt 0.421116 0.587767
vt 0.384347 0.643619
vt 0.381913 0.634706
vt 0.379477 0.624984
vt 0.378320 0.614425
vt 0.379223 0.603759
vt 0.381707 0.593844
vt 0.384345 0.584859
vt 0.585018 0.640607
vt 0.586935 0.631784
vt 0.594293 0.633007
vt 0.590732 0.641582
vt 0.578937 0.640474
vt 0.579230 0.631554
vt 0.572640 0.641184
vt 0.571619 0.632437
vt 0.588229 0.623431
vt 0.598065 0.624346
vt 0.578817 0.623249
vt 0.569864 0.623842
vt 0.588863 0.615288
vt 0.599567 0.615339
vt 0.578778 0.615107
vt 0.569116 0.615015
vt 0.588549 0.607161
vt 0.598100 0.606532
vt 0.579117 0.606981
vt 0.569865 0.606093
vt 0.587103 0.598961
vt 0.594531 0.598231
vt 0.579347 0.598627
vt 0.571711 0.597298
vt 0.585674 0.590140
vt 0.591394 0.589671
vt 0.579540 0.589724
vt 0.573157 0.588474
vt 0.611735 0.636102
vt 0.609162 0.644974
vt 0.614315 0.626420
vt 0.615623 0.615882
vt 0.614877 0.605208
vt 0.612543 0.595259
vt 0.610051 0.586234
vt 0.378320 0.748896
vt 0.386879 0.748896
vt 0.386879 0.754605
vt 0.378320 0.754605
vt 0.395438 0.748896
vt 0.395438 0.754605
vt 0.403998 0.748896
vt 0.403998 0.754605
vt 0.412557 0.748896
vt 0.412557 0.754605
vt 0.421116 0.748896
vt 0.421116 0.754605
vt 0.429675 0.748896
vt 0.429675 0.754605
vt 0.438234 0.748896
vt 0.438234 0.754605
vt 0.446793 0.748896
vt 0.446793 0.754605
vt 0.455352 0.748896
vt 0.455352 0.754605
vt 0.463911 0.748896
vt 0.463911 0.754605
vt 0.472471 0.748896
vt 0.472471 0.754605
vt 0.481030 0.748896
vt 0.481030 0.754605
vt 0.489589 0.748896
vt 0.489589 0.754605
vt 0.498148 0.748896
vt 0.498148 0.754605
vt 0.506707 0.748896
vt 0.506707 0.754605
vt 0.515266 0.748896
vt 0.515266 0.754605
vt 0.523825 0.748896
vt 0.523825 0.754605
vt 0.532384 0.748896
vt 0.532384 0.754605
vt 0.540944 0.748896
vt 0.540944 0.754605
vt 0.549503 0.748896
vt 0.549503 0.754605
vt 0.324373 0.933777
vt 0.313236 0.955845
vt 0.249141 0.909652
vt 0.295825 0.973390
vt 0.273844 0.984697
vt 0.249445 0.988658
vt 0.225016 0.984885
vt 0.202949 0.973748
vt 0.185403 0.956336
vt 0.174096 0.934355
vt 0.170136 0.909956
vt 0.173909 0.885528
vt 0.185046 0.863460
vt 0.202457 0.845915
vt 0.224438 0.834608
vt 0.248837 0.830647
vt 0.273266 0.834420
vt 0.295333 0.845557
vt 0.312879 0.862969
vt 0.324185 0.884950
vt 0.328146 0.909349
vn 0.000000 0.000000 1.000000
vn 0.000000 0.000000 1.000000
vn 0.000000 0.000000 1.000000
vn 0.000000 0.000000 1.000000
vn 0.000000 1.000000 0.000000
vn 0.000000 1.000000 0.000000
vn 0.000000 1.000000 0.000000
vn 0.000000 1.000000 0.000000
vn 0.000000 -1.000000 0.000000
vn 0.000000 -1.000000 0.000000
vn 0.000000 -1.000000 0.000000
vn 0.000000 -1.000000 0.000000
vn 0.032959 0.000000 -0.999457
vn 0.032959 0.000000 -0.999457
vn 0.032959 0.000000 -0.999457
vn 0.032959 0.000000 -0.999457
vn -1.000000 0.000000 0.000000
vn -1.000000 0.000000 0.000000
vn -1.000000 0.000000 0.000000
vn -1.000000 0.000000 0.000000
vn 1.000000 0.000000 0.000000
vn 1.000000 0.000000 0.000000
vn 1.000000 0.000000 0.000000
vn 1.000000 0.000000 0.000000
vn 0.000000 1.000000 0.000000
vn 0.000000 1.000000 0.000000
vn 0.000000 1.000000 0.000000
vn 0.000000 1.000000 0.000000
vn 0.000000 1.000000 0.000000
vn 0.000000 1.000000 0.000000
vn 0.000000 1.000000 0.000000
vn 0.000000 1.000000 0.000000
vn 0.000000 0.000000 -1.000000
vn 0.000000 0.000000 -1.000000
vn 0.000000 0.000000 -1.000000
vn 0.000000 0.000000 -1.000000
vn -1.000000 0.000000 0.000000
vn -1.000000 0.000000 0.000000
vn -1.000000 0.000000 0.000000
vn -1.000000 0.000000 0.000000
vn -0.034661 0.000000 0.999399
vn -0.034661 0.000000 0.999399
vn -0.034661 0.000000 0.999399
vn -0.034661 0.000000 0.999399
vn 1.000000 0.000000 0.000000
vn 1.000000 0.000000 0.000000
vn 1.000000 0.000000 0.000000
vn 1.000000 0.000000 0.000000
vn 0.016755 -0.999860 0.000000
vn 0.016755 -0.999860 0.000000
vn -0.016755 -0.999860 0.000000
vn -0.016755 -0.999860 0.000000
vn -0.016755 0.999860 0.000000
vn -0.016755 0.999860 0.000000
vn 0.016755 0.999860 0.000000
vn 0.016755 0.999860 0.000000
vn -0.994200 -0.107551 0.000000
vn -0.994200 -0.107551 0.000000
vn -0.994200 0.107551 0.000000
vn -0.994200 0.107551 0.000000
vn 0.994200 0.107551 0.000000
vn 0.994200 0.107551 0.000000
vn 0.994200 -0.107551 0.000000
vn 0.994200 -0.107551 0.000000
vn -0.382684 -0.923879 0.000000
vn -0.382684 -0.923879 0.000000
vn -0.923879 -0.382684 0.000000
vn -0.923879 -0.382684 0.000000
vn 0.923879 -0.382684 0.000000
vn 0.923879 -0.382684 0.000000
vn 0.382684 -0.923879 0.000000
vn 0.382684 -0.923879 0.000000
vn -0.923880 0.382683 0.000000
vn -0.923880 0.382683 0.000000
vn -0.382682 0.923880 0.000000
vn -0.382682 0.923880 0.000000
vn 0.382682 0.923880 0.000000
vn 0.382682 0.923880 0.000000
vn 0.923880 0.382683 0.000000
vn 0.923880 0.382683 0.000000
vn 0.000000 0.000000 1.000000
vn 0.000000 0.000000 1.000000
vn 0.000000 0.000000 1.000000
vn 0.000000 0.000000 1.000000
vn 0.000000 0.000000 1.000000
vn 0.000000 0.000000 1.000000
vn 0.000000 0.000000 1.000000
vn 0.000000 0.000000 1.000000
vn 0.000000 0.000000 1.000000
vn 0.000000 0.000000 1.000000
vn 0.000000 0.000000 1.000000
vn 0.000000 0.000000 1.000000
vn 0.866025 -0.000000 -0.500000
vn 0.997672 -0.000000 -0.068194
vn 0.446909 0.894174 -0.026934
vn 0.279993 0.946294 -0.161655
vn 0.500000 -0.000000 -0.866026
vn 0.161654 0.946294 -0.279993
vn 0.012755 0.000000 -0.999919
vn 0.005332 0.871896 -0.489663
vn -0.550116 0.832683 0.063336
vn -0.547986 0.774349 0.316379
vn -0.316380 0.774348 0.547986
vn -0.013567 0.859440 0.511057
vn -0.994594 0.000000 0.103844
vn -0.866026 0.000000 0.500000
vn -0.500000 0.000000 0.866025
vn -0.022834 0.000000 0.999739
vn -0.550116 -0.832683 0.063336
vn -0.547986 -0.774349 0.316380
vn -0.316380 -0.774348 0.547986
vn -0.013567 -0.859440 0.511056
vn 0.446909 -0.894174 -0.026934
vn 0.279994 -0.946293 -0.161655
vn 0.161655 -0.946294 -0.279994
vn 0.005332 -0.871896 -0.489663
vn 1.000000 -0.000000 0.000000
vn 0.500000 0.866026 0.000000
vn -0.500000 0.866025 0.000000
vn -1.000000 0.000000 0.000000
vn -0.500000 -0.866026 0.000000
vn 0.500000 -0.866025 0.000000
vn -0.866025 0.000000 -0.500000
vn -0.279993 0.946294 -0.161654
vn -0.446909 0.894174 -0.026934
vn -0.997672 0.000000 -0.068194
vn -0.500000 0.000000 -0.866025
vn -0.161654 0.946294 -0.279993
vn -0.012755 0.000000 -0.999919
vn -0.005332 0.871896 -0.489663
vn 0.547986 0.774349 0.316380
vn 0.550116 0.832683 0.063336
vn 0.316380 0.774348 0.547986
vn 0.013567 0.859440 0.511057
vn 0.866025 0.000000 0.500000
vn 0.994594 -0.000000 0.103843
vn 0.500000 0.000000 0.866025
vn 0.022834 0.000000 0.999739
vn 0.547986 -0.774349 0.316380
vn 0.550116 -0.832683 0.063336
vn 0.316380 -0.774348 0.547986
vn 0.013567 -0.859440 0.511056
vn -0.279994 -0.946293 -0.161655
vn -0.446909 -0.894174 -0.026934
vn -0.161655 -0.946294 -0.279994
vn -0.005332 -0.871896 -0.489663
vn -0.500000 0.866026 0.000000
vn -1.000000 -0.000000 0.000000
vn 0.500000 0.866025 0.000000
vn 1.000000 0.000000 0.000000
vn 0.500000 -0.866026 0.000000
vn -0.500000 -0.866025 0.000000
vn 0.951057 0.309016 0.000000
vn 0.809018 0.587784 0.000000
vn 0.809018 0.587784 0.000000
vn 0.951057 0.309016 0.000000
vn 0.587786 0.809017 0.000000
vn 0.587786 0.809017 0.000000
vn 0.309017 0.951057 0.000000
vn 0.309017 0.951057 0.000000
vn 0.000000 1.000000 0.000000
vn -0.000000 1.000000 0.000000
vn -0.309018 0.951056 0.000000
vn -0.309018 0.951056 0.000000
vn -0.587786 0.809017 0.000000
vn -0.587786 0.809017 0.000000
vn -0.809017 0.587785 0.000000
vn -0.809017 0.587785 0.000000
vn -0.951057 0.309017 0.000000
vn -0.951057 0.309017 0.000000
vn -1.000000 -0.000000 0.000000
vn -1.000000 -0.000000 0.000000
vn -0.951056 -0.309017 0.000000
vn -0.951056 -0.309017 0.000000
vn -0.809017 -0.587786 0.000000
vn -0.809017 -0.587786 0.000000
vn -0.587785 -0.809017 0.000000
vn -0.587786 -0.809017 0.000000
vn -0.309017 -0.951057 0.000000
vn -0.309017 -0.951057 0.000000
vn 0.000000 -1.000000 0.000000
vn 0.000000 -1.000000 0.000000
vn 0.309017 -0.951057 0.000000
vn 0.309017 -0.951057 0.000000
vn 0.587786 -0.809017 0.000000
vn 0.587786 -0.809017 0.000000
vn 0.809018 -0.587785 -0.000000
vn 0.809018 -0.587785 -0.000000
vn 0.951057 -0.309017 -0.000000
vn 0.951056 -0.309017 -0.000000
vn 1.000000 -0.000001 -0.000000
vn 1.000000 -0.000001 -0.000000
vn 0.000000 0.000001 1.000000
vn 0.000000 0.000000 1.000000
vn 0.000000 -0.000000 1.000000
vn 0.000000 -0.000000 1.000000
vn 0.000001 0.000000 1.000000
vn 0.000000 0.000000 1.000000
vn -0.000000 0.000000 1.000000
vn 0.000001 -0.000000 1.000000
vn 0.000000 -0.000000 1.000000
vn 0.000000 0.000001 1.000000
vn 0.000000 0.000001 1.000000
vn 0.000000 0.000000 1.000000
vn 0.000000 0.000000 1.000000
vn 0.000000 -0.000000 1.000000
vn -0.000001 -0.000000 1.000000
vn -0.000000 -0.000000 1.000000
vn 0.000001 -0.000000 1.000000
vn 0.000000 -0.000000 1.000000
vn 0.000000 0.000000 1.000000
vn 0.000000 0.000000 1.000000
vn 0.000000 0.000000 1.000000
s off
g Gimmick_Drawer01_Flower Gimmick
usemtl T_EV_Gimmick_Drawer01SG
f 1/33/1 2/34/2 4/35/3 3/36/4
f 13/17/5 14/18/6 15/19/7 16/20/8
f 7/21/9 8/22/10 2/23/11 1/24/12
f 5/37/13 6/38/14 8/39/15 7/40/16
f 3/1/17 5/2/18 7/3/19 1/4/20
f 6/5/21 4/6/22 2/7/23 8/8/24
s 1
f 3/25/25 4/55/26 10/53/27 9/28/28
f 4/26/26 6/54/29 11/51/30 10/27/27
f 6/29/29 5/52/31 12/50/32 11/30/30
f 5/31/31 3/56/25 9/49/28 12/32/32
s off
f 9/41/33 10/42/34 14/43/35 13/44/36
f 10/9/37 11/10/38 15/11/39 14/12/40
f 11/45/41 12/46/42 16/47/43 15/48/44
f 12/13/45 9/14/46 13/15/47 16/16/48
s 2
f 28/57/49 25/58/50 18/59/51 20/60/52
s 3
f 34/61/53 31/62/54 36/63/55 38/64/56
s 4
f 22/65/57 19/66/58 30/67/59 32/68/60
s 5
f 40/69/61 37/70/62 24/71/63 26/72/64
s 2
f 18/59/51 17/73/65 21/74/66 20/60/52
s 4
f 17/75/67 19/66/58 22/65/57 21/76/68
s 5
f 24/71/63 23/77/69 27/78/70 26/72/64
s 2
f 23/79/71 25/58/50 28/57/49 27/80/72
s 4
f 30/67/59 29/81/73 33/82/74 32/68/60
s 3
f 29/83/75 31/62/54 34/61/53 33/84/76
f 36/63/55 35/85/77 39/86/78 38/64/56
s 5
f 35/87/79 37/70/62 40/69/61 39/88/80
s 6
f 35/89/81 29/90/82 30/91/83 37/92/84
f 37/92/84 30/91/83 19/93/85 24/94/86
f 35/89/81 36/95/87 31/96/88 29/90/82
f 23/97/89 17/98/90 18/99/91 25/100/92
f 24/94/86 19/93/85 17/98/90 23/97/89
s 7
f 42/101/93 41/102/94 45/103/95 46/104/96
f 43/105/97 42/101/93 46/104/96 47/106/98
f 44/107/99 43/105/97 47/106/98 48/108/100
f 46/104/96 45/103/95 49/109/101 50/110/102
f 47/106/98 46/104/96 50/110/102 51/111/103
f 48/108/100 47/106/98 51/111/103 52/112/104
f 50/110/102 49/109/101 53/113/105 54/114/106
f 51/111/103 50/110/102 54/114/106 55/115/107
f 52/112/104 51/111/103 55/115/107 56/116/108
f 54/114/106 53/113/105 57/117/109 58/118/110
f 55/115/107 54/114/106 58/118/110 59/119/111
f 56/116/108 55/115/107 59/119/111 60/120/112
f 58/118/110 57/117/109 61/121/113 62/122/114
f 59/119/111 58/118/110 62/122/114 63/123/115
f 60/120/112 59/119/111 63/123/115 64/124/116
f 62/122/114 61/121/113 41/125/94 42/126/93
f 63/123/115 62/122/114 42/126/93 43/127/97
f 64/124/116 63/123/115 43/127/97 44/128/99
f 45/103/95 41/102/94 65/129/117 66/130/118
f 49/109/101 45/103/95 66/130/118 67/131/119
f 53/113/105 49/109/101 67/131/119 68/132/120
f 57/117/109 53/113/105 68/132/120 69/133/121
f 61/121/113 57/117/109 69/133/121 70/134/122
f 41/125/94 61/121/113 70/134/122 65/135/117
f 72/136/123 76/137/124 75/138/125 71/139/126
f 73/140/127 77/141/128 76/137/124 72/136/123
f 74/142/129 78/143/130 77/141/128 73/140/127
f 76/137/124 80/144/131 79/145/132 75/138/125
f 77/141/128 81/146/133 80/144/131 76/137/124
f 78/143/130 82/147/134 81/146/133 77/141/128
f 80/144/131 84/148/135 83/149/136 79/145/132
f 81/146/133 85/150/137 84/148/135 80/144/131
f 82/147/134 86/151/138 85/150/137 81/146/133
f 84/148/135 88/152/139 87/153/140 83/149/136
f 85/150/137 89/154/141 88/152/139 84/148/135
f 86/151/138 90/155/142 89/154/141 85/150/137
f 88/152/139 92/156/143 91/157/144 87/153/140
f 89/154/141 93/158/145 92/156/143 88/152/139
f 90/155/142 94/159/146 93/158/145 89/154/141
f 92/156/143 72/160/123 71/161/126 91/157/144
f 93/158/145 73/162/127 72/160/123 92/156/143
f 94/159/146 74/163/129 73/162/127 93/158/145
f 75/138/125 96/164/147 95/165/148 71/139/126
f 79/145/132 97/166/149 96/164/147 75/138/125
f 83/149/136 98/167/150 97/166/149 79/145/132
f 87/153/140 99/168/151 98/167/150 83/149/136
f 91/157/144 100/169/152 99/168/151 87/153/140
f 71/161/126 95/170/148 100/169/152 91/157/144
f 48/108/100 78/143/130 74/142/129 44/107/99
f 52/112/104 82/147/134 78/143/130 48/108/100
f 56/116/108 86/151/138 82/147/134 52/112/104
f 60/120/112 90/155/142 86/151/138 56/116/108
f 64/124/116 94/159/146 90/155/142 60/120/112
f 44/128/99 74/163/129 94/159/146 64/124/116
s 9
f 101/171/153 102/172/154 122/173/155 121/174/156
f 102/172/154 103/175/157 123/176/158 122/173/155
f 103/175/157 104/177/159 124/178/160 123/176/158
f 104/177/159 105/179/161 125/180/162 124/178/160
f 105/179/161 106/181/163 126/182/164 125/180/162
f 106/181/163 107/183/165 127/184/166 126/182/164
f 107/183/165 108/185/167 128/186/168 127/184/166
f 108/185/167 109/187/169 129/188/170 128/186/168
f 109/187/169 110/189/171 130/190/172 129/188/170
f 110/189/171 111/191/173 131/192/174 130/190/172
f 111/191/173 112/193/175 132/194/176 131/192/174
f 112/193/175 113/195/177 133/196/178 132/194/176
f 113/195/177 114/197/179 134/198/180 133/196/178
f 114/197/179 115/199/181 135/200/182 134/198/180
f 115/199/181 116/201/183 136/202/184 135/200/182
f 116/201/183 117/203/185 137/204/186 136/202/184
f 117/203/185 118/205/187 138/206/188 137/204/186
f 118/205/187 119/207/189 139/208/190 138/206/188
f 119/207/189 120/209/191 140/210/192 139/208/190
f 120/209/191 101/211/153 121/212/156 140/210/192
s 10
f 121/213/193 122/214/194 141/215/195
f 122/214/194 123/216/196 141/215/195
f 123/216/196 124/217/197 141/215/195
f 124/217/197 125/218/198 141/215/195
f 125/218/198 126/219/199 141/215/195
f 126/219/199 127/220/200 141/215/195
f 127/220/200 128/221/201 141/215/195
f 128/221/201 129/222/202 141/215/195
f 129/222/202 130/223/203 141/215/195
f 130/223/203 131/224/204 141/215/195
f 131/224/204 132/225/205 141/215/195
f 132/225/205 133/226/206 141/215/195
f 133/226/206 134/227/207 141/215/195
f 134/227/207 135/228/208 141/215/195
f 135/228/208 136/229/209 141/215/195
f 136/229/209 137/230/210 141/215/195
f 137/230/210 138/231/211 141/215/195
f 138/231/211 139/232/212 141/215/195
f 139/232/212 140/233/213 141/215/195
f 140/233/213 121/213/193 141/215/195
