# This file uses centimeters as units for non-parametric coordinates.

mtllib Gimmick_Drawer01_Eye.mtl
g default
v 2.786467 4.352711 13.458550
v 2.370310 5.169460 13.458550
v 1.722131 5.817642 13.458550
v 0.905378 6.233799 13.458549
v 0.000000 6.377193 13.458549
v -0.905378 6.233799 13.458549
v -1.722131 5.817638 13.458550
v -2.370309 5.169460 13.458549
v -2.786466 4.352711 13.458550
v -2.929863 3.447330 13.458550
v -2.786466 2.541954 13.458550
v -2.370309 1.725201 13.458550
v -1.722130 1.077023 13.458550
v -0.905378 0.660866 13.458550
v -0.000000 0.517467 13.458550
v 0.905377 0.660866 13.458550
v 1.722130 1.077023 13.458550
v 2.370309 1.725201 13.458550
v 2.786465 2.541954 13.458550
v 2.929862 3.447330 13.458550
v 2.786467 4.352711 14.069944
v 2.370310 5.169460 14.069943
v 1.722131 5.817642 14.069944
v 0.905378 6.233799 14.069943
v 0.000000 6.377193 14.069944
v -0.905378 6.233799 14.069944
v -1.722131 5.817638 14.069944
v -2.370309 5.169460 14.069943
v -2.786466 4.352711 14.069943
v -2.929863 3.447330 14.069944
v -2.786466 2.541954 14.069944
v -2.370309 1.725201 14.069944
v -1.722130 1.077023 14.069944
v -0.905378 0.660866 14.069943
v -0.000000 0.517467 14.069943
v 0.905377 0.660866 14.069943
v 1.722130 1.077023 14.069944
v 2.370309 1.725201 14.069944
v 2.786465 2.541954 14.069944
v 2.929862 3.447330 14.069944
v 0.000000 3.447330 14.069944
v -30.500000 0.000002 13.534341
v 30.500000 0.000002 13.534341
v -30.500000 13.000000 13.534341
v 30.500000 13.000000 13.534341
v -30.500000 13.000000 -12.011575
v 30.500000 13.000000 -10.000000
v -30.500000 0.000002 -12.011575
v 30.500000 0.000002 -10.000000
v -29.000000 13.000000 12.034341
v 29.000000 13.000000 12.034341
v 29.000000 13.000000 -8.500000
v -29.000000 13.000000 -10.511575
v -29.000000 1.982283 12.034341
v 29.000000 1.982283 12.034341
v 29.000000 1.982283 -8.500000
v -29.000000 1.982283 -10.511575
v -11.051676 6.806101 13.987015
v -10.192223 6.450103 13.987015
v -11.407673 7.665553 13.987015
v -10.192223 6.450103 13.384392
v -11.051676 6.806101 13.384392
v -11.407673 7.665553 13.384392
v 11.051676 6.806101 13.987015
v 11.407673 7.665553 13.987015
v 10.192223 6.450103 13.987015
v 11.407673 7.665553 13.384392
v 11.051676 6.806101 13.384392
v 10.192223 6.450103 13.384392
v -11.051676 10.956394 13.987015
v -11.407673 10.096939 13.987015
v -10.192223 11.312389 13.987015
v -11.407673 10.096939 13.384392
v -11.051676 10.956394 13.384392
v -10.192223 11.312389 13.384392
v 11.051676 10.956394 13.987015
v 10.192223 11.312389 13.987015
v 11.407673 10.096939 13.987015
v 10.192223 11.312389 13.384392
v 11.051676 10.956394 13.384392
v 11.407673 10.096939 13.384392
v -7.768274 8.980888 15.903241
v -7.634299 8.980888 16.403240
v -7.268274 8.980888 16.769268
v -6.768274 8.980888 16.903240
v -8.268274 9.846914 15.903241
v -8.067312 9.846914 16.653240
v -7.518274 9.846914 17.202278
v -6.768274 9.846914 17.403240
v -9.268274 9.846913 15.903241
v -8.933336 9.846913 17.153240
v -8.018274 9.846913 18.068306
v -6.768274 9.846913 18.403240
v -9.768274 8.980888 15.903241
v -9.366350 8.980888 17.403240
v -8.268274 8.980888 18.501316
v -6.768274 8.980888 18.903240
v -9.268274 8.114862 15.903241
v -8.933336 8.114862 17.153240
v -8.018274 8.114862 18.068306
v -6.768274 8.114862 18.403240
v -8.268274 8.114863 15.903241
v -8.067312 8.114863 16.653240
v -7.518274 8.114863 17.202278
v -6.768274 8.114863 17.403240
v -7.768274 8.980888 13.927411
v -8.268274 9.846914 13.927411
v -9.268274 9.846913 13.927411
v -9.768274 8.980888 13.927411
v -9.268274 8.114862 13.927411
v -8.268274 8.114863 13.927411
v 7.768274 8.980888 15.903241
v 7.634299 8.980888 16.403240
v 7.268274 8.980888 16.769268
v 6.768274 8.980888 16.903240
v 8.268274 9.846914 15.903241
v 8.067312 9.846914 16.653240
v 7.518274 9.846914 17.202278
v 6.768274 9.846914 17.403240
v 9.268274 9.846913 15.903241
v 8.933336 9.846913 17.153240
v 8.018274 9.846913 18.068306
v 6.768274 9.846913 18.403240
v 9.768274 8.980888 15.903241
v 9.366350 8.980888 17.403240
v 8.268274 8.980888 18.501316
v 6.768274 8.980888 18.903240
v 9.268274 8.114862 15.903241
v 8.933336 8.114862 17.153240
v 8.018274 8.114862 18.068306
v 6.768274 8.114862 18.403240
v 8.268274 8.114863 15.903241
v 8.067312 8.114863 16.653240
v 7.518274 8.114863 17.202278
v 6.768274 8.114863 17.403240
v 7.768274 8.980888 13.927411
v 8.268274 9.846914 13.927411
v 9.268274 9.846913 13.927411
v 9.768274 8.980888 13.927411
v 9.268274 8.114862 13.927411
v 8.268274 8.114863 13.927411
vt 0.378320 0.706423
vt 0.386879 0.706423
vt 0.395438 0.706423
vt 0.403998 0.706423
vt 0.412557 0.706423
vt 0.421116 0.706423
vt 0.429675 0.706423
vt 0.438234 0.706423
vt 0.446793 0.706423
vt 0.455352 0.706423
vt 0.463911 0.706423
vt 0.472471 0.706423
vt 0.481030 0.706423
vt 0.489589 0.706423
vt 0.498148 0.706423
vt 0.506707 0.706423
vt 0.515266 0.706423
vt 0.523825 0.706423
vt 0.532384 0.706423
vt 0.540944 0.706423
vt 0.549503 0.706423
vt 0.378320 0.712131
vt 0.386879 0.712131
vt 0.395438 0.712131
vt 0.403998 0.712131
vt 0.412557 0.712131
vt 0.421116 0.712131
vt 0.429675 0.712131
vt 0.438234 0.712131
vt 0.446793 0.712131
vt 0.455352 0.712131
vt 0.463911 0.712131
vt 0.472471 0.712131
vt 0.481030 0.712131
vt 0.489589 0.712131
vt 0.498148 0.712131
vt 0.506707 0.712131
vt 0.515266 0.712131
vt 0.523825 0.712131
vt 0.532384 0.712131
vt 0.540944 0.712131
vt 0.549503 0.712131
vt 0.491574 0.884950
vt 0.480267 0.862969
vt 0.462722 0.845557
vt 0.440655 0.834420
vt 0.416226 0.830647
vt 0.391827 0.834608
vt 0.369846 0.845915
vt 0.352435 0.863460
vt 0.341298 0.885528
vt 0.337525 0.909956
vt 0.341485 0.934355
vt 0.352792 0.956336
vt 0.370338 0.973748
vt 0.392405 0.984885
vt 0.416834 0.988658
vt 0.441233 0.984697
vt 0.463214 0.973390
vt 0.480625 0.955845
vt 0.491762 0.933777
vt 0.495535 0.909349
vt 0.416530 0.909652
vt 0.590039 0.577423
vt 0.590039 0.007852
vt 0.711423 0.007852
vt 0.711423 0.577423
vt 0.245996 0.549411
vt 0.245996 0.007852
vt 0.447121 0.007852
vt 0.447121 0.549411
vt 0.007812 0.577423
vt 0.007812 0.007852
vt 0.236949 0.007852
vt 0.236949 0.577423
vt 0.457715 0.577578
vt 0.457715 0.007852
vt 0.579132 0.007852
vt 0.579132 0.577578
vt 0.367380 0.558233
vt 0.367380 0.796761
vt 0.245996 0.796761
vt 0.245996 0.558233
vt 0.843747 0.558396
vt 0.843747 0.778141
vt 0.722363 0.778141
vt 0.722363 0.558396
vt 0.951725 0.577389
vt 0.951725 0.007818
vt 0.965731 0.021824
vt 0.965731 0.563383
vt 0.881152 0.777944
vt 0.881152 0.558198
vt 0.895158 0.572204
vt 0.895158 0.763938
vt 0.992188 0.007812
vt 0.992188 0.577707
vt 0.978190 0.563210
vt 0.978190 0.021311
vt 0.868693 0.558183
vt 0.868693 0.796710
vt 0.854687 0.782704
vt 0.854687 0.572189
vt 0.837044 0.549411
vt 0.837044 0.007852
vt 0.939919 0.007852
vt 0.939919 0.549411
vt 0.225368 0.586245
vt 0.225368 0.777978
vt 0.122493 0.777978
vt 0.122493 0.586245
vt 0.825269 0.007852
vt 0.825269 0.549574
vt 0.722363 0.549574
vt 0.722363 0.007852
vt 0.110687 0.586245
vt 0.110687 0.796761
vt 0.007812 0.796761
vt 0.007812 0.586245
vt 0.973779 0.593823
vt 0.979424 0.593823
vt 0.979424 0.784765
vt 0.973779 0.784765
vt 0.630970 0.785238
vt 0.625326 0.785238
vt 0.625326 0.594295
vt 0.630970 0.594295
vt 0.660612 0.594405
vt 0.666334 0.594405
vt 0.666334 0.617492
vt 0.660612 0.617492
vt 0.648691 0.617492
vt 0.642969 0.617492
vt 0.642969 0.594405
vt 0.648691 0.594405
vt 0.979424 0.792816
vt 0.973779 0.792816
vt 0.666334 0.586245
vt 0.660612 0.586245
vt 0.642969 0.586245
vt 0.648691 0.586245
vt 0.979424 0.585772
vt 0.973779 0.585772
vt 0.666334 0.625652
vt 0.660612 0.625652
vt 0.625326 0.793288
vt 0.630970 0.793288
vt 0.625326 0.586245
vt 0.630970 0.586245
vt 0.642969 0.625652
vt 0.648691 0.625652
vt 0.390466 0.655525
vt 0.596850 0.655525
vt 0.600174 0.663550
vt 0.387142 0.663550
vt 0.600174 0.686252
vt 0.387142 0.686252
vt 0.398491 0.652201
vt 0.588825 0.652201
vt 0.390466 0.694277
vt 0.596850 0.694277
vt 0.588825 0.697601
vt 0.398491 0.697601
vt 0.408599 0.639644
vt 0.402854 0.640525
vt 0.399419 0.631892
vt 0.406809 0.630777
vt 0.414699 0.639618
vt 0.414534 0.630653
vt 0.421004 0.640467
vt 0.422142 0.631642
vt 0.395764 0.623172
vt 0.405622 0.622398
vt 0.415051 0.622316
vt 0.424017 0.622919
vt 0.394381 0.614141
vt 0.405084 0.614244
vt 0.415170 0.614164
vt 0.424838 0.614037
vt 0.395966 0.605354
vt 0.405495 0.606120
vt 0.414912 0.606039
vt 0.424159 0.605164
vt 0.399651 0.597107
vt 0.407051 0.597947
vt 0.414793 0.597718
vt 0.422433 0.596489
vt 0.402925 0.588601
vt 0.408619 0.589168
vt 0.414738 0.588866
vt 0.421116 0.587767
vt 0.384347 0.643619
vt 0.381913 0.634706
vt 0.379477 0.624984
vt 0.378320 0.614425
vt 0.379223 0.603759
vt 0.381707 0.593844
vt 0.384345 0.584859
vt 0.585018 0.640607
vt 0.586935 0.631784
vt 0.594293 0.633007
vt 0.590732 0.641582
vt 0.578937 0.640474
vt 0.579230 0.631554
vt 0.572640 0.641184
vt 0.571619 0.632437
vt 0.588229 0.623431
vt 0.598065 0.624346
vt 0.578817 0.623249
vt 0.569864 0.623842
vt 0.588863 0.615288
vt 0.599567 0.615339
vt 0.578778 0.615107
vt 0.569116 0.615015
vt 0.588549 0.607161
vt 0.598100 0.606532
vt 0.579117 0.606981
vt 0.569865 0.606093
vt 0.587103 0.598961
vt 0.594531 0.598231
vt 0.579347 0.598627
vt 0.571711 0.597298
vt 0.585674 0.590140
vt 0.591394 0.589671
vt 0.579540 0.589724
vt 0.573157 0.588474
vt 0.611735 0.636102
vt 0.609162 0.644974
vt 0.614315 0.626420
vt 0.615623 0.615882
vt 0.614877 0.605208
vt 0.612543 0.595259
vt 0.610051 0.586234
vn 0.951057 0.309016 0.000000
vn 0.809017 0.587785 0.000000
vn 0.809017 0.587785 0.000000
vn 0.951057 0.309016 0.000000
vn 0.587787 0.809016 0.000000
vn 0.587787 0.809016 0.000000
vn 0.309016 0.951057 0.000000
vn 0.309016 0.951057 0.000000
vn 0.000000 1.000000 0.000000
vn -0.000000 1.000000 0.000000
vn -0.309017 0.951056 0.000000
vn -0.309017 0.951056 0.000000
vn -0.587787 0.809016 0.000000
vn -0.587787 0.809016 0.000000
vn -0.809016 0.587786 0.000000
vn -0.809016 0.587786 0.000000
vn -0.951057 0.309017 0.000000
vn -0.951057 0.309017 0.000000
vn -1.000000 -0.000000 0.000000
vn -1.000000 -0.000000 0.000000
vn -0.951057 -0.309017 0.000000
vn -0.951057 -0.309017 0.000000
vn -0.809017 -0.587785 0.000000
vn -0.809017 -0.587785 0.000000
vn -0.587786 -0.809017 0.000000
vn -0.587786 -0.809017 0.000000
vn -0.309018 -0.951056 0.000000
vn -0.309018 -0.951056 0.000000
vn 0.000000 -1.000000 0.000000
vn 0.000000 -1.000000 0.000000
vn 0.309018 -0.951056 0.000000
vn 0.309018 -0.951056 0.000000
vn 0.587786 -0.809017 0.000000
vn 0.587786 -0.809017 0.000000
vn 0.809017 -0.587785 0.000000
vn 0.809017 -0.587785 0.000000
vn 0.951056 -0.309017 0.000000
vn 0.951056 -0.309017 0.000000
vn 1.000000 -0.000001 0.000000
vn 1.000000 -0.000001 0.000000
vn 0.000000 0.000001 1.000000
vn 0.000000 0.000000 1.000000
vn 0.000000 -0.000000 1.000000
vn -0.000001 0.000000 1.000000
vn -0.000000 0.000000 1.000000
vn 0.000000 0.000000 1.000000
vn -0.000000 0.000000 1.000000
vn 0.000001 -0.000000 1.000000
vn 0.000000 -0.000000 1.000000
vn 0.000000 0.000001 1.000000
vn 0.000000 0.000001 1.000000
vn 0.000000 0.000000 1.000000
vn 0.000000 0.000000 1.000000
vn 0.000001 -0.000000 1.000000
vn -0.000000 -0.000000 1.000000
vn -0.000000 -0.000000 1.000000
vn 0.000000 -0.000000 1.000000
vn -0.000001 -0.000000 1.000000
vn 0.000000 0.000000 1.000000
vn 0.000000 0.000000 1.000000
vn 0.000000 0.000000 1.000000
vn 0.000000 0.000000 1.000000
vn 0.000000 0.000000 1.000000
vn 0.000000 0.000000 1.000000
vn 0.000000 0.000000 1.000000
vn 0.000000 1.000000 0.000000
vn 0.000000 1.000000 0.000000
vn 0.000000 1.000000 0.000000
vn 0.000000 1.000000 0.000000
vn 0.000000 -1.000000 0.000000
vn 0.000000 -1.000000 0.000000
vn 0.000000 -1.000000 0.000000
vn 0.000000 -1.000000 0.000000
vn 0.032959 0.000000 -0.999457
vn 0.032959 0.000000 -0.999457
vn 0.032959 0.000000 -0.999457
vn 0.032959 0.000000 -0.999457
vn -1.000000 0.000000 0.000000
vn -1.000000 0.000000 0.000000
vn -1.000000 0.000000 0.000000
vn -1.000000 0.000000 0.000000
vn 1.000000 0.000000 0.000000
vn 1.000000 0.000000 0.000000
vn 1.000000 0.000000 0.000000
vn 1.000000 0.000000 0.000000
vn 0.000000 1.000000 0.000000
vn 0.000000 1.000000 0.000000
vn 0.000000 1.000000 0.000000
vn 0.000000 1.000000 0.000000
vn 0.000000 1.000000 0.000000
vn 0.000000 1.000000 0.000000
vn 0.000000 1.000000 0.000000
vn 0.000000 1.000000 0.000000
vn 0.000000 0.000000 -1.000000
vn 0.000000 0.000000 -1.000000
vn 0.000000 0.000000 -1.000000
vn 0.000000 0.000000 -1.000000
vn -1.000000 0.000000 0.000000
vn -1.000000 0.000000 0.000000
vn -1.000000 0.000000 0.000000
vn -1.000000 0.000000 0.000000
vn -0.034661 0.000000 0.999399
vn -0.034661 0.000000 0.999399
vn -0.034661 0.000000 0.999399
vn -0.034661 0.000000 0.999399
vn 1.000000 0.000000 0.000000
vn 1.000000 0.000000 0.000000
vn 1.000000 0.000000 0.000000
vn 1.000000 0.000000 0.000000
vn 0.016755 -0.999860 0.000000
vn 0.016755 -0.999860 0.000000
vn -0.016755 -0.999860 0.000000
vn -0.016755 -0.999860 0.000000
vn -0.016755 0.999860 0.000000
vn -0.016755 0.999860 0.000000
vn 0.016755 0.999860 0.000000
vn 0.016755 0.999860 0.000000
vn -0.994200 -0.107551 0.000000
vn -0.994200 -0.107551 0.000000
vn -0.994200 0.107551 0.000000
vn -0.994200 0.107551 0.000000
vn 0.994200 0.107551 0.000000
vn 0.994200 0.107551 0.000000
vn 0.994200 -0.107551 0.000000
vn 0.994200 -0.107551 0.000000
vn -0.382684 -0.923879 0.000000
vn -0.382684 -0.923879 0.000000
vn -0.923879 -0.382684 0.000000
vn -0.923879 -0.382684 0.000000
vn 0.923879 -0.382684 0.000000
vn 0.923879 -0.382684 0.000000
vn 0.382684 -0.923879 0.000000
vn 0.382684 -0.923879 0.000000
vn -0.923880 0.382683 0.000000
vn -0.923880 0.382683 0.000000
vn -0.382682 0.923880 0.000000
vn -0.382682 0.923880 0.000000
vn 0.382682 0.923880 0.000000
vn 0.382682 0.923880 0.000000
vn 0.923880 0.382683 0.000000
vn 0.923880 0.382683 0.000000
vn 0.000000 0.000000 1.000000
vn 0.000000 0.000000 1.000000
vn 0.000000 0.000000 1.000000
vn 0.000000 0.000000 1.000000
vn 0.000000 0.000000 1.000000
vn 0.000000 0.000000 1.000000
vn 0.000000 0.000000 1.000000
vn 0.000000 0.000000 1.000000
vn 0.000000 0.000000 1.000000
vn 0.000000 0.000000 1.000000
vn 0.000000 0.000000 1.000000
vn 0.000000 0.000000 1.000000
vn 0.866025 -0.000000 -0.500000
vn 0.997672 -0.000000 -0.068194
vn 0.446909 0.894174 -0.026934
vn 0.279993 0.946294 -0.161655
vn 0.500000 -0.000000 -0.866026
vn 0.161654 0.946294 -0.279993
vn 0.012755 0.000000 -0.999919
vn 0.005332 0.871896 -0.489663
vn -0.550116 0.832683 0.063336
vn -0.547986 0.774349 0.316379
vn -0.316380 0.774348 0.547986
vn -0.013567 0.859440 0.511057
vn -0.994594 0.000000 0.103844
vn -0.866026 0.000000 0.500000
vn -0.500000 0.000000 0.866025
vn -0.022834 0.000000 0.999739
vn -0.550116 -0.832683 0.063336
vn -0.547986 -0.774349 0.316380
vn -0.316380 -0.774348 0.547986
vn -0.013567 -0.859440 0.511056
vn 0.446909 -0.894174 -0.026934
vn 0.279994 -0.946293 -0.161655
vn 0.161655 -0.946294 -0.279994
vn 0.005332 -0.871896 -0.489663
vn 1.000000 -0.000000 0.000000
vn 0.500000 0.866026 0.000000
vn -0.500000 0.866025 0.000000
vn -1.000000 0.000000 0.000000
vn -0.500000 -0.866026 0.000000
vn 0.500000 -0.866025 0.000000
vn -0.866025 0.000000 -0.500000
vn -0.279993 0.946294 -0.161654
vn -0.446909 0.894174 -0.026934
vn -0.997672 0.000000 -0.068194
vn -0.500000 0.000000 -0.866025
vn -0.161654 0.946294 -0.279993
vn -0.012755 0.000000 -0.999919
vn -0.005332 0.871896 -0.489663
vn 0.547986 0.774349 0.316380
vn 0.550116 0.832683 0.063336
vn 0.316380 0.774348 0.547986
vn 0.013567 0.859440 0.511057
vn 0.866025 0.000000 0.500000
vn 0.994594 -0.000000 0.103843
vn 0.500000 0.000000 0.866025
vn 0.022834 0.000000 0.999739
vn 0.547986 -0.774349 0.316380
vn 0.550116 -0.832683 0.063336
vn 0.316380 -0.774348 0.547986
vn 0.013567 -0.859440 0.511056
vn -0.279994 -0.946293 -0.161655
vn -0.446909 -0.894174 -0.026934
vn -0.161655 -0.946294 -0.279994
vn -0.005332 -0.871896 -0.489663
vn -0.500000 0.866026 0.000000
vn -1.000000 -0.000000 0.000000
vn 0.500000 0.866025 0.000000
vn 1.000000 0.000000 0.000000
vn 0.500000 -0.866026 0.000000
vn -0.500000 -0.866025 0.000000
s 1
g Gimmick_Drawer01_Eye Gimmick
usemtl T_EV_Gimmick_Drawer01SG
f 1/1/1 2/2/2 22/23/3 21/22/4
f 2/2/2 3/3/5 23/24/6 22/23/3
f 3/3/5 4/4/7 24/25/8 23/24/6
f 4/4/7 5/5/9 25/26/10 24/25/8
f 5/5/9 6/6/11 26/27/12 25/26/10
f 6/6/11 7/7/13 27/28/14 26/27/12
f 7/7/13 8/8/15 28/29/16 27/28/14
f 8/8/15 9/9/17 29/30/18 28/29/16
f 9/9/17 10/10/19 30/31/20 29/30/18
f 10/10/19 11/11/21 31/32/22 30/31/20
f 11/11/21 12/12/23 32/33/24 31/32/22
f 12/12/23 13/13/25 33/34/26 32/33/24
f 13/13/25 14/14/27 34/35/28 33/34/26
f 14/14/27 15/15/29 35/36/30 34/35/28
f 15/15/29 16/16/31 36/37/32 35/36/30
f 16/16/31 17/17/33 37/38/34 36/37/32
f 17/17/33 18/18/35 38/39/36 37/38/34
f 18/18/35 19/19/37 39/40/38 38/39/36
f 19/19/37 20/20/39 40/41/40 39/40/38
f 20/20/39 1/21/1 21/42/4 40/41/40
s 2
f 21/61/41 22/60/42 41/63/43
f 22/60/42 23/59/44 41/63/43
f 23/59/44 24/58/45 41/63/43
f 24/58/45 25/57/46 41/63/43
f 25/57/46 26/56/47 41/63/43
f 26/56/47 27/55/48 41/63/43
f 27/55/48 28/54/49 41/63/43
f 28/54/49 29/53/50 41/63/43
f 29/53/50 30/52/51 41/63/43
f 30/52/51 31/51/52 41/63/43
f 31/51/52 32/50/53 41/63/43
f 32/50/53 33/49/54 41/63/43
f 33/49/54 34/48/55 41/63/43
f 34/48/55 35/47/56 41/63/43
f 35/47/56 36/46/57 41/63/43
f 36/46/57 37/45/58 41/63/43
f 37/45/58 38/44/59 41/63/43
f 38/44/59 39/43/60 41/63/43
f 39/43/60 40/62/61 41/63/43
f 40/62/61 21/61/41 41/63/43
s off
f 42/64/62 43/65/63 45/66/64 44/67/65
f 54/68/66 55/69/67 56/70/68 57/71/69
f 48/72/70 49/73/71 43/74/72 42/75/73
f 46/76/74 47/77/75 49/78/76 48/79/77
f 44/80/78 46/81/79 48/82/80 42/83/81
f 47/84/82 45/85/83 43/86/84 49/87/85
s 3
f 44/88/86 45/89/87 51/90/88 50/91/89
f 45/92/87 47/93/90 52/94/91 51/95/88
f 47/96/90 46/97/92 53/98/93 52/99/91
f 46/100/92 44/101/86 50/102/89 53/103/93
s off
f 50/104/94 51/105/95 55/106/96 54/107/97
f 51/108/98 52/109/99 56/110/100 55/111/101
f 52/112/102 53/113/103 57/114/104 56/115/105
f 53/116/106 50/117/107 54/118/108 57/119/109
s 4
f 69/120/110 66/121/111 59/122/112 61/123/113
s 5
f 75/124/114 72/125/115 77/126/116 79/127/117
s 6
f 63/128/118 60/129/119 71/130/120 73/131/121
s 7
f 81/132/122 78/133/123 65/134/124 67/135/125
s 4
f 59/122/112 58/136/126 62/137/127 61/123/113
s 6
f 58/138/128 60/129/119 63/128/118 62/139/129
s 7
f 65/134/124 64/140/130 68/141/131 67/135/125
s 4
f 64/142/132 66/121/111 69/120/110 68/143/133
s 6
f 71/130/120 70/144/134 74/145/135 73/131/121
s 5
f 70/146/136 72/125/115 75/124/114 74/147/137
f 77/126/116 76/148/138 80/149/139 79/127/117
s 7
f 76/150/140 78/133/123 81/132/122 80/151/141
s 8
f 76/152/142 70/153/143 71/154/144 78/155/145
f 78/155/145 71/154/144 60/156/146 65/157/147
f 76/152/142 77/158/148 72/159/149 70/153/143
f 64/160/150 58/161/151 59/162/152 66/163/153
f 65/157/147 60/156/146 58/161/151 64/160/150
s 9
f 83/164/154 82/165/155 86/166/156 87/167/157
f 84/168/158 83/164/154 87/167/157 88/169/159
f 85/170/160 84/168/158 88/169/159 89/171/161
f 87/167/157 86/166/156 90/172/162 91/173/163
f 88/169/159 87/167/157 91/173/163 92/174/164
f 89/171/161 88/169/159 92/174/164 93/175/165
f 91/173/163 90/172/162 94/176/166 95/177/167
f 92/174/164 91/173/163 95/177/167 96/178/168
f 93/175/165 92/174/164 96/178/168 97/179/169
f 95/177/167 94/176/166 98/180/170 99/181/171
f 96/178/168 95/177/167 99/181/171 100/182/172
f 97/179/169 96/178/168 100/182/172 101/183/173
f 99/181/171 98/180/170 102/184/174 103/185/175
f 100/182/172 99/181/171 103/185/175 104/186/176
f 101/183/173 100/182/172 104/186/176 105/187/177
f 103/185/175 102/184/174 82/188/155 83/189/154
f 104/186/176 103/185/175 83/189/154 84/190/158
f 105/187/177 104/186/176 84/190/158 85/191/160
f 86/166/156 82/165/155 106/192/178 107/193/179
f 90/172/162 86/166/156 107/193/179 108/194/180
f 94/176/166 90/172/162 108/194/180 109/195/181
f 98/180/170 94/176/166 109/195/181 110/196/182
f 102/184/174 98/180/170 110/196/182 111/197/183
f 82/188/155 102/184/174 111/197/183 106/198/178
f 113/199/184 117/200/185 116/201/186 112/202/187
f 114/203/188 118/204/189 117/200/185 113/199/184
f 115/205/190 119/206/191 118/204/189 114/203/188
f 117/200/185 121/207/192 120/208/193 116/201/186
f 118/204/189 122/209/194 121/207/192 117/200/185
f 119/206/191 123/210/195 122/209/194 118/204/189
f 121/207/192 125/211/196 124/212/197 120/208/193
f 122/209/194 126/213/198 125/211/196 121/207/192
f 123/210/195 127/214/199 126/213/198 122/209/194
f 125/211/196 129/215/200 128/216/201 124/212/197
f 126/213/198 130/217/202 129/215/200 125/211/196
f 127/214/199 131/218/203 130/217/202 126/213/198
f 129/215/200 133/219/204 132/220/205 128/216/201
f 130/217/202 134/221/206 133/219/204 129/215/200
f 131/218/203 135/222/207 134/221/206 130/217/202
f 133/219/204 113/223/184 112/224/187 132/220/205
f 134/221/206 114/225/188 113/223/184 133/219/204
f 135/222/207 115/226/190 114/225/188 134/221/206
f 116/201/186 137/227/208 136/228/209 112/202/187
f 120/208/193 138/229/210 137/227/208 116/201/186
f 124/212/197 139/230/211 138/229/210 120/208/193
f 128/216/201 140/231/212 139/230/211 124/212/197
f 132/220/205 141/232/213 140/231/212 128/216/201
f 112/224/187 136/233/209 141/232/213 132/220/205
f 89/171/161 119/206/191 115/205/190 85/170/160
f 93/175/165 123/210/195 119/206/191 89/171/161
f 97/179/169 127/214/199 123/210/195 93/175/165
f 101/183/173 131/218/203 127/214/199 97/179/169
f 105/187/177 135/222/207 131/218/203 101/183/173
f 85/191/160 115/226/190 135/222/207 105/187/177
